# MagicaVoxel @ ephtracy

# material
mtllib Bullet.mtl

# normals
vn -1 0 0
vn 1 0 0
vn 0 0 1
vn 0 0 -1
vn 0 -1 0
vn 0 1 0

# texcoords
vt 0.0449219 0.5
vt 0.0683594 0.5

# verts
v -1.5 2 1.5
v -1.5 3 1.5
v -1.5 3 0.5
v -1.5 2 0.5
v -1.5 0 1.5
v -1.5 1 1.5
v -1.5 1 0.5
v -1.5 0 0.5
v -0.5 2 1.5
v -0.5 2 0.5
v -0.5 3 0.5
v -0.5 3 1.5
v -0.5 0 1.5
v -0.5 0 0.5
v -0.5 1 0.5
v -0.5 1 1.5

# faces

usemtl palette

f 1/1/1 2/1/1 3/1/1 4/1/1

f 5/2/1 6/2/1 7/2/1 8/2/1

f 6/1/1 1/1/1 4/1/1 7/1/1

f 9/1/2 10/1/2 11/1/2 12/1/2

f 13/2/2 14/2/2 15/2/2 16/2/2

f 16/1/2 15/1/2 10/1/2 9/1/2

f 1/1/3 9/1/3 12/1/3 2/1/3

f 5/2/3 13/2/3 16/2/3 6/2/3

f 6/1/3 16/1/3 9/1/3 1/1/3

f 4/1/4 3/1/4 11/1/4 10/1/4

f 8/2/4 7/2/4 15/2/4 14/2/4

f 7/1/4 4/1/4 10/1/4 15/1/4

f 5/2/5 8/2/5 14/2/5 13/2/5

f 2/1/6 12/1/6 11/1/6 3/1/6

# numNormals 6
# numTexCoords 2
# numVerts 16
# numFaces 14
