# MagicaVoxel @ ephtracy

# material
mtllib Corner.mtl

# normals
vn -1 0 0
vn 1 0 0
vn 0 0 1
vn 0 0 -1
vn 0 -1 0
vn 0 1 0

# texcoords
vt 0.958984 0.5
vt 0.982422 0.5
vt 0.986328 0.5
vt 0.990234 0.5

# verts
v -3.5 0 2.5
v -3.5 1 2.5
v -3.5 1 1.5
v -3.5 0 1.5
v -3.5 0 -1.5
v -3.5 1 -1.5
v -3.5 1 -2.5
v -3.5 0 -2.5
v -3.5 1 0.5
v -3.5 0 0.5
v -3.5 1 -0.5
v -3.5 0 -0.5
v -3.5 0 3.5
v -3.5 1 3.5
v -3.5 2 3.5
v -3.5 2 2.5
v -3.5 3 3.5
v -3.5 3 2.5
v -3.5 1 -3.5
v -3.5 0 -3.5
v 2.5 1 3.5
v 2.5 2 3.5
v 2.5 2 2.5
v 2.5 1 2.5
v 2.5 2 1.5
v 2.5 1 1.5
v 2.5 2 0.5
v 2.5 1 0.5
v 2.5 2 -0.5
v 2.5 1 -0.5
v 2.5 2 -1.5
v 2.5 1 -1.5
v 2.5 2 -2.5
v 2.5 1 -2.5
v 2.5 3 3.5
v 2.5 3 2.5
v 2.5 3 1.5
v 2.5 3 0.5
v 2.5 3 -0.5
v 2.5 3 -1.5
v 2.5 3 -2.5
v -3.5 2 -2.5
v -3.5 2 -3.5
v -3.5 3 -2.5
v -3.5 3 -3.5
v 2.5 4 3.5
v 2.5 4 2.5
v 2.5 4 1.5
v 2.5 4 0.5
v 2.5 4 -0.5
v 2.5 4 -1.5
v 2.5 4 -2.5
v -3.5 4 -2.5
v -3.5 4 -3.5
v -3.5 4 3.5
v -3.5 4 2.5
v -3.5 5 3.5
v -3.5 5 2.5
v 2.5 5 3.5
v 2.5 5 2.5
v 2.5 5 1.5
v 2.5 5 0.5
v 2.5 5 -0.5
v 2.5 5 -1.5
v 2.5 5 -2.5
v -3.5 5 -2.5
v -3.5 5 -3.5
v 1.5 5 3.5
v 1.5 6 3.5
v 1.5 6 2.5
v 1.5 5 2.5
v 1.5 6 1.5
v 1.5 5 1.5
v 1.5 6 0.5
v 1.5 5 0.5
v 1.5 6 -0.5
v 1.5 5 -0.5
v 1.5 6 -1.5
v 1.5 5 -1.5
v -3.5 5 -1.5
v -3.5 6 -1.5
v -3.5 6 -2.5
v -2.5 5 3.5
v -2.5 6 3.5
v -2.5 6 2.5
v -2.5 5 2.5
v -3.5 6 2.5
v -3.5 6 1.5
v -3.5 5 1.5
v -3.5 7 1.5
v -3.5 7 0.5
v -3.5 6 0.5
v -3.5 7 -0.5
v -3.5 6 -0.5
v -3.5 7 -1.5
v -1.5 6 2.5
v -1.5 7 2.5
v -1.5 7 1.5
v -1.5 6 1.5
v -1.5 6 3.5
v -1.5 7 3.5
v -2.5 1 3.5
v -2.5 1 2.5
v -2.5 2 2.5
v -2.5 2 3.5
v -2.5 3 2.5
v -2.5 3 3.5
v 3.5 0 -1.5
v 3.5 0 -2.5
v 3.5 1 -2.5
v 3.5 1 -1.5
v 3.5 0 -3.5
v 3.5 1 -3.5
v 3.5 0 3.5
v 3.5 0 2.5
v 3.5 1 2.5
v 3.5 1 3.5
v 3.5 0 1.5
v 3.5 1 1.5
v 3.5 0 0.5
v 3.5 1 0.5
v 3.5 0 -0.5
v 3.5 1 -0.5
v 3.5 2 2.5
v 3.5 2 3.5
v 3.5 2 1.5
v 3.5 2 0.5
v 3.5 2 -0.5
v 3.5 2 -1.5
v 3.5 2 -2.5
v 3.5 2 -3.5
v 3.5 3 2.5
v 3.5 3 3.5
v 3.5 3 1.5
v 3.5 3 0.5
v 3.5 3 -0.5
v 3.5 3 -1.5
v 3.5 3 -2.5
v 3.5 3 -3.5
v 3.5 4 2.5
v 3.5 4 3.5
v 3.5 4 1.5
v 3.5 4 0.5
v 3.5 4 -0.5
v 3.5 4 -1.5
v 3.5 4 -2.5
v 3.5 4 -3.5
v -2.5 4 2.5
v -2.5 4 3.5
v 3.5 5 2.5
v 3.5 5 3.5
v 3.5 5 1.5
v 3.5 5 0.5
v 3.5 5 -0.5
v 3.5 5 -1.5
v 3.5 5 -2.5
v 3.5 5 -3.5
v 2.5 6 2.5
v 2.5 6 3.5
v 2.5 6 1.5
v 2.5 6 0.5
v 2.5 6 -0.5
v 2.5 6 -1.5
v 2.5 6 -2.5
v -1.5 5 3.5
v -1.5 5 2.5
v -1.5 5 1.5
v 1.5 7 0.5
v 1.5 7 1.5
v 1.5 7 -0.5
v 1.5 7 -1.5
v 1.5 7 2.5
v 1.5 7 3.5
v -2.5 0 3.5
v -1.5 0 3.5
v -1.5 1 3.5
v 1.5 0 3.5
v 2.5 0 3.5
v 1.5 1 3.5
v -0.5 0 3.5
v 0.5 0 3.5
v 0.5 1 3.5
v -0.5 1 3.5
v -2.5 1 -2.5
v -2.5 2 -2.5
v -1.5 1 -2.5
v -1.5 2 -2.5
v -0.5 1 -2.5
v -0.5 2 -2.5
v 0.5 1 -2.5
v 0.5 2 -2.5
v 1.5 1 -2.5
v 1.5 2 -2.5
v -2.5 3 -2.5
v -1.5 3 -2.5
v -0.5 3 -2.5
v 0.5 3 -2.5
v 1.5 3 -2.5
v -2.5 4 -2.5
v -1.5 4 -2.5
v -0.5 4 -2.5
v 0.5 4 -2.5
v 1.5 4 -2.5
v -2.5 5 -2.5
v -1.5 5 -2.5
v -0.5 5 -2.5
v 0.5 5 -2.5
v 1.5 5 -2.5
v 0.5 5 -1.5
v 0.5 6 -1.5
v -0.5 5 -1.5
v -0.5 6 -1.5
v -1.5 5 -1.5
v -1.5 6 -1.5
v -2.5 5 -1.5
v -2.5 6 -1.5
v -2.5 6 1.5
v -2.5 7 1.5
v -0.5 6 3.5
v -0.5 7 3.5
v 0.5 6 3.5
v 0.5 7 3.5
v -2.5 1 -3.5
v -2.5 0 -3.5
v -1.5 1 -3.5
v -1.5 0 -3.5
v -0.5 1 -3.5
v -0.5 0 -3.5
v 0.5 1 -3.5
v 0.5 0 -3.5
v 1.5 1 -3.5
v 1.5 0 -3.5
v 2.5 1 -3.5
v 2.5 0 -3.5
v 2.5 2 -3.5
v 2.5 3 -3.5
v -2.5 2 -3.5
v -1.5 2 -3.5
v -0.5 2 -3.5
v 0.5 2 -3.5
v 1.5 2 -3.5
v -2.5 3 -3.5
v -1.5 3 -3.5
v -0.5 3 -3.5
v 0.5 3 -3.5
v 1.5 3 -3.5
v 2.5 4 -3.5
v -2.5 4 -3.5
v -1.5 4 -3.5
v -0.5 4 -3.5
v 0.5 4 -3.5
v 1.5 4 -3.5
v 2.5 5 -3.5
v -2.5 5 -3.5
v -1.5 5 -3.5
v -0.5 5 -3.5
v 0.5 5 -3.5
v 1.5 5 -3.5
v 1.5 6 -2.5
v 0.5 6 -2.5
v -0.5 6 -2.5
v -1.5 6 -2.5
v -2.5 6 -2.5
v -2.5 5 1.5
v -2.5 7 -1.5
v -1.5 7 -1.5
v -0.5 7 -1.5
v 0.5 7 -1.5
v -2.5 0 2.5
v -2.5 0 1.5
v -1.5 0 1.5
v -1.5 0 2.5
v 1.5 0 -1.5
v 1.5 0 -2.5
v 2.5 0 -2.5
v 2.5 0 -1.5
v 1.5 0 -0.5
v 2.5 0 -0.5
v 0.5 0 -1.5
v 0.5 0 -2.5
v -2.5 0 -2.5
v -2.5 0 -1.5
v 1.5 0 0.5
v 2.5 0 0.5
v -1.5 0 -1.5
v -1.5 0 -2.5
v -0.5 0 -2.5
v -0.5 0 -1.5
v 1.5 0 1.5
v 2.5 0 1.5
v 1.5 0 2.5
v 2.5 0 2.5
v -2.5 0 0.5
v -1.5 0 0.5
v -0.5 0 0.5
v -0.5 0 1.5
v 0.5 0 0.5
v 0.5 0 1.5
v -2.5 0 -0.5
v -1.5 0 -0.5
v -0.5 0 -0.5
v 0.5 0 -0.5
v -0.5 0 2.5
v 0.5 0 2.5
v -2.5 6 0.5
v -2.5 6 -0.5
v -1.5 6 0.5
v -1.5 6 -0.5
v -0.5 6 0.5
v -0.5 6 1.5
v -0.5 6 -0.5
v 0.5 6 0.5
v 0.5 6 1.5
v 0.5 6 -0.5
v -0.5 6 2.5
v 0.5 6 2.5
v -1.5 1 2.5
v -1.5 1 1.5
v -2.5 1 1.5
v 1.5 1 -1.5
v 1.5 1 -0.5
v 0.5 1 -1.5
v -2.5 1 -1.5
v 1.5 1 0.5
v -1.5 1 -1.5
v -0.5 1 -1.5
v 1.5 1 1.5
v 1.5 1 2.5
v -2.5 1 0.5
v -1.5 1 0.5
v -0.5 1 1.5
v -0.5 1 0.5
v 0.5 1 1.5
v 0.5 1 0.5
v -2.5 1 -0.5
v -1.5 1 -0.5
v -0.5 1 -0.5
v 0.5 1 -0.5
v 0.5 1 2.5
v -0.5 1 2.5
v -2.5 7 0.5
v -2.5 7 -0.5
v -1.5 7 0.5
v -1.5 7 -0.5
v -0.5 7 1.5
v -0.5 7 0.5
v -0.5 7 -0.5
v 0.5 7 1.5
v 0.5 7 0.5
v 0.5 7 -0.5
v -0.5 7 2.5
v 0.5 7 2.5

# faces

usemtl palette

f 1/4/1 2/4/1 3/4/1 4/4/1

f 5/4/1 6/4/1 7/4/1 8/4/1

f 4/3/1 3/3/1 9/3/1 10/3/1

f 10/3/1 9/3/1 11/3/1 12/3/1

f 12/3/1 11/3/1 6/3/1 5/3/1

f 13/3/1 14/3/1 2/3/1 1/3/1

f 14/2/1 15/2/1 16/2/1 2/2/1

f 15/3/1 17/3/1 18/3/1 16/3/1

f 8/3/1 7/3/1 19/3/1 20/3/1

f 21/3/1 22/3/1 23/3/1 24/3/1

f 24/3/1 23/3/1 25/3/1 26/3/1

f 26/3/1 25/3/1 27/3/1 28/3/1

f 28/3/1 27/3/1 29/3/1 30/3/1

f 30/3/1 29/3/1 31/3/1 32/3/1

f 32/2/1 31/2/1 33/2/1 34/2/1

f 22/3/1 35/3/1 36/3/1 23/3/1

f 23/3/1 36/3/1 37/3/1 25/3/1

f 25/3/1 37/3/1 38/3/1 27/3/1

f 27/3/1 38/3/1 39/3/1 29/3/1

f 29/2/1 39/2/1 40/2/1 31/2/1

f 31/3/1 40/3/1 41/3/1 33/3/1

f 7/3/1 42/3/1 43/3/1 19/3/1

f 42/3/1 44/3/1 45/3/1 43/3/1

f 35/2/1 46/2/1 47/2/1 36/2/1

f 36/3/1 47/3/1 48/3/1 37/3/1

f 37/3/1 48/3/1 49/3/1 38/3/1

f 38/3/1 49/3/1 50/3/1 39/3/1

f 39/3/1 50/3/1 51/3/1 40/3/1

f 40/3/1 51/3/1 52/3/1 41/3/1

f 44/3/1 53/3/1 54/3/1 45/3/1

f 17/3/1 55/3/1 56/3/1 18/3/1

f 55/3/1 57/3/1 58/3/1 56/3/1

f 46/2/1 59/2/1 60/2/1 47/2/1

f 47/3/1 60/3/1 61/3/1 48/3/1

f 48/3/1 61/3/1 62/3/1 49/3/1

f 49/3/1 62/3/1 63/3/1 50/3/1

f 50/3/1 63/3/1 64/3/1 51/3/1

f 51/3/1 64/3/1 65/3/1 52/3/1

f 53/3/1 66/3/1 67/3/1 54/3/1

f 68/3/1 69/3/1 70/3/1 71/3/1

f 71/3/1 70/3/1 72/3/1 73/3/1

f 73/3/1 72/3/1 74/3/1 75/3/1

f 75/3/1 74/3/1 76/3/1 77/3/1

f 77/3/1 76/3/1 78/3/1 79/3/1

f 80/3/1 81/3/1 82/3/1 66/3/1

f 83/3/1 84/3/1 85/3/1 86/3/1

f 58/3/1 87/3/1 88/3/1 89/3/1

f 88/3/1 90/3/1 91/3/1 92/3/1

f 92/3/1 91/3/1 93/3/1 94/3/1

f 94/3/1 93/3/1 95/3/1 81/3/1

f 96/3/1 97/3/1 98/3/1 99/3/1

f 100/3/1 101/3/1 97/3/1 96/3/1

f 102/2/2 103/2/2 104/2/2 105/2/2

f 105/3/2 104/3/2 106/3/2 107/3/2

f 108/3/2 109/3/2 110/3/2 111/3/2

f 109/3/2 112/3/2 113/3/2 110/3/2

f 114/3/2 115/3/2 116/3/2 117/3/2

f 115/3/2 118/3/2 119/3/2 116/3/2

f 118/3/2 120/3/2 121/3/2 119/3/2

f 120/3/2 122/3/2 123/3/2 121/3/2

f 122/3/2 108/3/2 111/3/2 123/3/2

f 117/3/2 116/3/2 124/3/2 125/3/2

f 116/3/2 119/3/2 126/3/2 124/3/2

f 119/3/2 121/3/2 127/3/2 126/3/2

f 121/3/2 123/3/2 128/3/2 127/3/2

f 123/3/2 111/3/2 129/3/2 128/3/2

f 111/2/2 110/2/2 130/2/2 129/2/2

f 110/3/2 113/3/2 131/3/2 130/3/2

f 125/3/2 124/3/2 132/3/2 133/3/2

f 124/3/2 126/3/2 134/3/2 132/3/2

f 126/3/2 127/3/2 135/3/2 134/3/2

f 127/3/2 128/3/2 136/3/2 135/3/2

f 128/2/2 129/2/2 137/2/2 136/2/2

f 129/3/2 130/3/2 138/3/2 137/3/2

f 130/3/2 131/3/2 139/3/2 138/3/2

f 133/2/2 132/2/2 140/2/2 141/2/2

f 132/3/2 134/3/2 142/3/2 140/3/2

f 134/3/2 135/3/2 143/3/2 142/3/2

f 135/3/2 136/3/2 144/3/2 143/3/2

f 136/3/2 137/3/2 145/3/2 144/3/2

f 137/3/2 138/3/2 146/3/2 145/3/2

f 138/3/2 139/3/2 147/3/2 146/3/2

f 107/3/2 106/3/2 148/3/2 149/3/2

f 149/3/2 148/3/2 86/3/2 83/3/2

f 141/2/2 140/2/2 150/2/2 151/2/2

f 140/3/2 142/3/2 152/3/2 150/3/2

f 142/3/2 143/3/2 153/3/2 152/3/2

f 143/3/2 144/3/2 154/3/2 153/3/2

f 144/3/2 145/3/2 155/3/2 154/3/2

f 145/3/2 146/3/2 156/3/2 155/3/2

f 146/3/2 147/3/2 157/3/2 156/3/2

f 59/3/2 60/3/2 158/3/2 159/3/2

f 60/3/2 61/3/2 160/3/2 158/3/2

f 61/3/2 62/3/2 161/3/2 160/3/2

f 62/3/2 63/3/2 162/3/2 161/3/2

f 63/3/2 64/3/2 163/3/2 162/3/2

f 64/3/2 65/3/2 164/3/2 163/3/2

f 165/3/2 166/3/2 96/3/2 100/3/2

f 166/3/2 167/3/2 99/3/2 96/3/2

f 72/3/2 74/3/2 168/3/2 169/3/2

f 74/3/2 76/3/2 170/3/2 168/3/2

f 76/3/2 78/3/2 171/3/2 170/3/2

f 70/3/2 72/3/2 169/3/2 172/3/2

f 69/3/2 70/3/2 172/3/2 173/3/2

f 174/4/3 175/4/3 176/4/3 102/4/3

f 177/4/3 178/4/3 21/4/3 179/4/3

f 180/3/3 181/3/3 182/3/3 183/3/3

f 181/3/3 177/3/3 179/3/3 182/3/3

f 175/2/3 180/2/3 183/2/3 176/2/3

f 13/3/3 174/3/3 102/3/3 14/3/3

f 14/2/3 102/2/3 105/2/3 15/2/3

f 15/3/3 105/3/3 107/3/3 17/3/3

f 178/3/3 114/3/3 117/3/3 21/3/3

f 21/3/3 117/3/3 125/3/3 22/3/3

f 22/3/3 125/3/3 133/3/3 35/3/3

f 7/3/3 184/3/3 185/3/3 42/3/3

f 184/3/3 186/3/3 187/3/3 185/3/3

f 186/3/3 188/3/3 189/3/3 187/3/3

f 188/3/3 190/3/3 191/3/3 189/3/3

f 190/3/3 192/3/3 193/3/3 191/3/3

f 192/3/3 34/3/3 33/3/3 193/3/3

f 42/3/3 185/3/3 194/3/3 44/3/3

f 185/3/3 187/3/3 195/3/3 194/3/3

f 187/3/3 189/3/3 196/3/3 195/3/3

f 189/3/3 191/3/3 197/3/3 196/3/3

f 191/3/3 193/3/3 198/3/3 197/3/3

f 193/3/3 33/3/3 41/3/3 198/3/3

f 35/2/3 133/2/3 141/2/3 46/2/3

f 44/3/3 194/3/3 199/3/3 53/3/3

f 194/3/3 195/3/3 200/3/3 199/3/3

f 195/3/3 196/3/3 201/3/3 200/3/3

f 196/3/3 197/3/3 202/3/3 201/3/3

f 197/3/3 198/3/3 203/3/3 202/3/3

f 198/3/3 41/3/3 52/3/3 203/3/3

f 17/3/3 107/3/3 149/3/3 55/3/3

f 55/3/3 149/3/3 83/3/3 57/3/3

f 46/2/3 141/2/3 151/2/3 59/2/3

f 53/3/3 199/3/3 204/3/3 66/3/3

f 199/2/3 200/2/3 205/2/3 204/2/3

f 200/3/3 201/3/3 206/3/3 205/3/3

f 201/3/3 202/3/3 207/3/3 206/3/3

f 202/3/3 203/3/3 208/3/3 207/3/3

f 203/3/3 52/3/3 65/3/3 208/3/3

f 68/3/3 59/3/3 159/3/3 69/3/3

f 209/3/3 79/3/3 78/3/3 210/3/3

f 211/3/3 209/3/3 210/3/3 212/3/3

f 213/3/3 211/3/3 212/3/3 214/3/3

f 215/3/3 213/3/3 214/3/3 216/3/3

f 80/3/3 215/3/3 216/3/3 81/3/3

f 83/3/3 165/3/3 100/3/3 84/3/3

f 58/3/3 86/3/3 85/3/3 87/3/3

f 88/3/3 217/3/3 218/3/3 90/3/3

f 217/3/3 99/3/3 98/3/3 218/3/3

f 100/3/3 219/3/3 220/3/3 101/3/3

f 219/3/3 221/3/3 222/3/3 220/3/3

f 221/3/3 69/3/3 173/3/3 222/3/3

f 2/2/4 16/2/4 104/2/4 103/2/4

f 16/3/4 18/3/4 106/3/4 104/3/4

f 20/3/4 19/3/4 223/3/4 224/3/4

f 224/3/4 223/3/4 225/3/4 226/3/4

f 226/3/4 225/3/4 227/3/4 228/3/4

f 228/3/4 227/3/4 229/3/4 230/3/4

f 230/3/4 229/3/4 231/3/4 232/3/4

f 232/3/4 231/3/4 233/3/4 234/3/4

f 234/3/4 233/3/4 113/3/4 112/3/4

f 233/3/4 235/3/4 131/3/4 113/3/4

f 235/3/4 236/3/4 139/3/4 131/3/4

f 19/3/4 43/3/4 237/3/4 223/3/4

f 223/3/4 237/3/4 238/3/4 225/3/4

f 225/3/4 238/3/4 239/3/4 227/3/4

f 227/3/4 239/3/4 240/3/4 229/3/4

f 229/3/4 240/3/4 241/3/4 231/3/4

f 231/3/4 241/3/4 235/3/4 233/3/4

f 43/3/4 45/3/4 242/3/4 237/3/4

f 237/3/4 242/3/4 243/3/4 238/3/4

f 238/3/4 243/3/4 244/3/4 239/3/4

f 239/3/4 244/3/4 245/3/4 240/3/4

f 240/3/4 245/3/4 246/3/4 241/3/4

f 241/3/4 246/3/4 236/3/4 235/3/4

f 236/3/4 247/3/4 147/3/4 139/3/4

f 45/3/4 54/3/4 248/3/4 242/3/4

f 242/3/4 248/3/4 249/3/4 243/3/4

f 243/3/4 249/3/4 250/3/4 244/3/4

f 244/3/4 250/3/4 251/3/4 245/3/4

f 245/3/4 251/3/4 252/3/4 246/3/4

f 246/3/4 252/3/4 247/3/4 236/3/4

f 18/3/4 56/3/4 148/3/4 106/3/4

f 56/3/4 58/3/4 86/3/4 148/3/4

f 247/3/4 253/3/4 157/3/4 147/3/4

f 54/3/4 67/3/4 254/3/4 248/3/4

f 248/2/4 254/2/4 255/2/4 249/2/4

f 249/3/4 255/3/4 256/3/4 250/3/4

f 250/3/4 256/3/4 257/3/4 251/3/4

f 251/3/4 257/3/4 258/3/4 252/3/4

f 252/3/4 258/3/4 253/3/4 247/3/4

f 208/3/4 259/3/4 164/3/4 65/3/4

f 207/3/4 260/3/4 259/3/4 208/3/4

f 206/3/4 261/3/4 260/3/4 207/3/4

f 205/3/4 262/3/4 261/3/4 206/3/4

f 204/3/4 263/3/4 262/3/4 205/3/4

f 66/3/4 82/3/4 263/3/4 204/3/4

f 264/3/4 217/3/4 99/3/4 167/3/4

f 89/3/4 88/3/4 217/3/4 264/3/4

f 81/3/4 95/3/4 265/3/4 216/3/4

f 216/3/4 265/3/4 266/3/4 214/3/4

f 214/3/4 266/3/4 267/3/4 212/3/4

f 212/3/4 267/3/4 268/3/4 210/3/4

f 210/3/4 268/3/4 171/3/4 78/3/4

f 269/4/5 270/4/5 271/4/5 272/4/5

f 273/4/5 274/4/5 275/4/5 276/4/5

f 277/4/5 273/4/5 276/4/5 278/4/5

f 279/4/5 280/4/5 274/4/5 273/4/5

f 1/4/5 4/4/5 270/4/5 269/4/5

f 5/4/5 8/4/5 281/4/5 282/4/5

f 283/4/5 277/4/5 278/4/5 284/4/5

f 285/4/5 286/4/5 287/4/5 288/4/5

f 282/4/5 281/4/5 286/4/5 285/4/5

f 289/4/5 283/4/5 284/4/5 290/4/5

f 291/4/5 289/4/5 290/4/5 292/4/5

f 288/4/5 287/4/5 280/4/5 279/4/5

f 174/4/5 269/4/5 272/4/5 175/4/5

f 177/4/5 291/4/5 292/4/5 178/4/5

f 4/3/5 10/3/5 293/3/5 270/3/5

f 270/3/5 293/3/5 294/3/5 271/3/5

f 271/3/5 294/3/5 295/3/5 296/3/5

f 296/3/5 295/3/5 297/3/5 298/3/5

f 298/3/5 297/3/5 283/3/5 289/3/5

f 10/3/5 12/3/5 299/3/5 293/3/5

f 293/3/5 299/3/5 300/3/5 294/3/5

f 294/3/5 300/3/5 301/3/5 295/3/5

f 295/3/5 301/3/5 302/3/5 297/3/5

f 297/3/5 302/3/5 277/3/5 283/3/5

f 12/3/5 5/3/5 282/3/5 299/3/5

f 299/3/5 282/3/5 285/3/5 300/3/5

f 300/2/5 285/2/5 288/2/5 301/2/5

f 301/3/5 288/3/5 279/3/5 302/3/5

f 302/3/5 279/3/5 273/3/5 277/3/5

f 180/3/5 303/3/5 304/3/5 181/3/5

f 181/3/5 304/3/5 291/3/5 177/3/5

f 303/3/5 296/3/5 298/3/5 304/3/5

f 304/3/5 298/3/5 289/3/5 291/3/5

f 175/2/5 272/2/5 303/2/5 180/2/5

f 272/3/5 271/3/5 296/3/5 303/3/5

f 13/3/5 1/3/5 269/3/5 174/3/5

f 276/3/5 275/3/5 109/3/5 108/3/5

f 8/3/5 20/3/5 224/3/5 281/3/5

f 281/3/5 224/3/5 226/3/5 286/3/5

f 286/3/5 226/3/5 228/3/5 287/3/5

f 287/3/5 228/3/5 230/3/5 280/3/5

f 280/3/5 230/3/5 232/3/5 274/3/5

f 274/3/5 232/3/5 234/3/5 275/3/5

f 275/3/5 234/3/5 112/3/5 109/3/5

f 178/3/5 292/3/5 115/3/5 114/3/5

f 292/3/5 290/3/5 118/3/5 115/3/5

f 290/3/5 284/3/5 120/3/5 118/3/5

f 284/3/5 278/3/5 122/3/5 120/3/5

f 278/3/5 276/3/5 108/3/5 122/3/5

f 68/3/5 71/3/5 60/3/5 59/3/5

f 71/3/5 73/3/5 61/3/5 60/3/5

f 73/3/5 75/3/5 62/3/5 61/3/5

f 75/3/5 77/3/5 63/3/5 62/3/5

f 77/3/5 79/3/5 64/3/5 63/3/5

f 79/3/5 208/3/5 65/3/5 64/3/5

f 209/3/5 207/3/5 208/3/5 79/3/5

f 211/3/5 206/3/5 207/3/5 209/3/5

f 213/3/5 205/3/5 206/3/5 211/3/5

f 215/3/5 204/3/5 205/3/5 213/3/5

f 80/3/5 66/3/5 204/3/5 215/3/5

f 83/3/5 86/3/5 166/3/5 165/3/5

f 86/3/5 264/3/5 167/3/5 166/3/5

f 58/3/5 89/3/5 264/3/5 86/3/5

f 88/3/5 92/3/5 305/3/5 217/3/5

f 92/3/5 94/3/5 306/3/5 305/3/5

f 94/3/5 81/3/5 216/3/5 306/3/5

f 217/3/5 305/3/5 307/3/5 99/3/5

f 305/1/5 306/1/5 308/1/5 307/1/5

f 99/2/5 307/2/5 309/2/5 310/2/5

f 307/1/5 308/1/5 311/1/5 309/1/5

f 310/1/5 309/1/5 312/1/5 313/1/5

f 309/3/5 311/3/5 314/3/5 312/3/5

f 306/3/5 216/3/5 214/3/5 308/3/5

f 308/3/5 214/3/5 212/3/5 311/3/5

f 311/3/5 212/3/5 210/3/5 314/3/5

f 313/3/5 312/3/5 74/3/5 72/3/5

f 312/3/5 314/3/5 76/3/5 74/3/5

f 314/3/5 210/3/5 78/3/5 76/3/5

f 96/3/5 99/3/5 310/3/5 315/3/5

f 315/1/5 310/1/5 313/1/5 316/1/5

f 316/3/5 313/3/5 72/3/5 70/3/5

f 100/3/5 96/3/5 315/3/5 219/3/5

f 219/3/5 315/3/5 316/3/5 221/3/5

f 221/3/5 316/3/5 70/3/5 69/3/5

f 103/4/6 317/4/6 318/4/6 319/4/6

f 320/4/6 32/4/6 34/4/6 192/4/6

f 321/4/6 30/4/6 32/4/6 320/4/6

f 322/4/6 320/4/6 192/4/6 190/4/6

f 2/4/6 103/4/6 319/4/6 3/4/6

f 6/4/6 323/4/6 184/4/6 7/4/6

f 324/4/6 28/4/6 30/4/6 321/4/6

f 325/4/6 326/4/6 188/4/6 186/4/6

f 323/4/6 325/4/6 186/4/6 184/4/6

f 327/4/6 26/4/6 28/4/6 324/4/6

f 328/4/6 24/4/6 26/4/6 327/4/6

f 326/4/6 322/4/6 190/4/6 188/4/6

f 102/4/6 176/4/6 317/4/6 103/4/6

f 179/4/6 21/4/6 24/4/6 328/4/6

f 3/3/6 319/3/6 329/3/6 9/3/6

f 319/3/6 318/3/6 330/3/6 329/3/6

f 318/3/6 331/3/6 332/3/6 330/3/6

f 331/3/6 333/3/6 334/3/6 332/3/6

f 333/3/6 327/3/6 324/3/6 334/3/6

f 9/3/6 329/3/6 335/3/6 11/3/6

f 329/3/6 330/3/6 336/3/6 335/3/6

f 330/3/6 332/3/6 337/3/6 336/3/6

f 332/3/6 334/3/6 338/3/6 337/3/6

f 334/3/6 324/3/6 321/3/6 338/3/6

f 11/3/6 335/3/6 323/3/6 6/3/6

f 335/3/6 336/3/6 325/3/6 323/3/6

f 336/2/6 337/2/6 326/2/6 325/2/6

f 337/3/6 338/3/6 322/3/6 326/3/6

f 338/3/6 321/3/6 320/3/6 322/3/6

f 183/3/6 182/3/6 339/3/6 340/3/6

f 182/3/6 179/3/6 328/3/6 339/3/6

f 340/3/6 339/3/6 333/3/6 331/3/6

f 339/3/6 328/3/6 327/3/6 333/3/6

f 176/2/6 183/2/6 340/2/6 317/2/6

f 317/3/6 340/3/6 331/3/6 318/3/6

f 57/3/6 83/3/6 86/3/6 58/3/6

f 59/2/6 151/2/6 150/2/6 60/2/6

f 60/3/6 150/3/6 152/3/6 61/3/6

f 61/3/6 152/3/6 153/3/6 62/3/6

f 62/3/6 153/3/6 154/3/6 63/3/6

f 63/3/6 154/3/6 155/3/6 64/3/6

f 64/3/6 155/3/6 156/3/6 65/3/6

f 65/3/6 156/3/6 157/3/6 253/3/6

f 66/3/6 204/3/6 254/3/6 67/3/6

f 204/2/6 205/2/6 255/2/6 254/2/6

f 205/3/6 206/3/6 256/3/6 255/3/6

f 206/3/6 207/3/6 257/3/6 256/3/6

f 207/3/6 208/3/6 258/3/6 257/3/6

f 208/3/6 65/3/6 253/3/6 258/3/6

f 69/3/6 159/3/6 158/3/6 70/3/6

f 70/3/6 158/3/6 160/3/6 72/3/6

f 72/3/6 160/3/6 161/3/6 74/3/6

f 74/3/6 161/3/6 162/3/6 76/3/6

f 76/3/6 162/3/6 163/3/6 78/3/6

f 78/3/6 163/3/6 164/3/6 259/3/6

f 210/3/6 78/3/6 259/3/6 260/3/6

f 212/3/6 210/3/6 260/3/6 261/3/6

f 214/3/6 212/3/6 261/3/6 262/3/6

f 216/3/6 214/3/6 262/3/6 263/3/6

f 81/3/6 216/3/6 263/3/6 82/3/6

f 84/3/6 100/3/6 96/3/6 85/3/6

f 85/3/6 96/3/6 99/3/6 217/3/6

f 87/3/6 85/3/6 217/3/6 88/3/6

f 90/3/6 218/3/6 341/3/6 91/3/6

f 91/3/6 341/3/6 342/3/6 93/3/6

f 93/3/6 342/3/6 265/3/6 95/3/6

f 218/3/6 98/3/6 343/3/6 341/3/6

f 341/1/6 343/1/6 344/1/6 342/1/6

f 98/2/6 345/2/6 346/2/6 343/2/6

f 343/1/6 346/1/6 347/1/6 344/1/6

f 345/1/6 348/1/6 349/1/6 346/1/6

f 346/3/6 349/3/6 350/3/6 347/3/6

f 342/3/6 344/3/6 266/3/6 265/3/6

f 344/3/6 347/3/6 267/3/6 266/3/6

f 347/3/6 350/3/6 268/3/6 267/3/6

f 348/3/6 169/3/6 168/3/6 349/3/6

f 349/3/6 168/3/6 170/3/6 350/3/6

f 350/3/6 170/3/6 171/3/6 268/3/6

f 97/3/6 351/3/6 345/3/6 98/3/6

f 351/1/6 352/1/6 348/1/6 345/1/6

f 352/3/6 172/3/6 169/3/6 348/3/6

f 101/3/6 220/3/6 351/3/6 97/3/6

f 220/3/6 222/3/6 352/3/6 351/3/6

f 222/3/6 173/3/6 172/3/6 352/3/6

# numNormals 6
# numTexCoords 4
# numVerts 352
# numFaces 376
