# MagicaVoxel @ ephtracy

# material
mtllib Hallway.mtl

# normals
vn -1 0 0
vn 1 0 0
vn 0 0 1
vn 0 0 -1
vn 0 -1 0
vn 0 1 0

# texcoords
vt 0.958984 0.5
vt 0.982422 0.5
vt 0.986328 0.5
vt 0.990234 0.5

# verts
v -3.5 3 -1.5
v -3.5 4 -1.5
v -3.5 4 -2.5
v -3.5 3 -2.5
v -3.5 4 -0.5
v -3.5 5 -0.5
v -3.5 5 -1.5
v -3.5 6 -0.5
v -3.5 6 -1.5
v 1.5 5 -1.5
v 1.5 6 -1.5
v 1.5 6 -2.5
v 1.5 5 -2.5
v 1.5 5 -0.5
v 1.5 6 -0.5
v -3.5 6 -2.5
v -3.5 5 -2.5
v 2.5 1 -0.5
v 2.5 2 -0.5
v 2.5 2 -1.5
v 2.5 1 -1.5
v -1.5 6 -0.5
v -1.5 7 -0.5
v -1.5 7 -1.5
v -1.5 6 -1.5
v 2.5 4 -1.5
v 2.5 5 -1.5
v 2.5 5 -2.5
v 2.5 4 -2.5
v -1.5 6 -2.5
v -1.5 7 -2.5
v -1.5 7 -3.5
v -1.5 6 -3.5
v 2.5 3 -1.5
v 2.5 3 -2.5
v 2.5 2 -2.5
v -3.5 5 -3.5
v -3.5 4 -3.5
v 1.5 6 -3.5
v 1.5 5 -3.5
v 2.5 3 -3.5
v 2.5 2 -3.5
v -3.5 3 -0.5
v -3.5 0 -0.5
v -3.5 1 -0.5
v -3.5 1 -1.5
v -3.5 0 -1.5
v -3.5 1 -2.5
v -3.5 0 -2.5
v -3.5 1 -3.5
v -3.5 0 -3.5
v 2.5 5 -3.5
v 2.5 4 -3.5
v 2.5 4 -0.5
v 2.5 5 -0.5
v -3.5 3 -3.5
v -3.5 2 -0.5
v -3.5 2 -1.5
v -3.5 2 -2.5
v -3.5 2 -3.5
v 2.5 3 -0.5
v 2.5 1 -2.5
v 2.5 1 -3.5
v -3.5 6 -3.5
v 2.5 1 3.5
v 2.5 2 3.5
v 2.5 2 2.5
v 2.5 1 2.5
v 2.5 2 1.5
v 2.5 1 1.5
v 2.5 2 0.5
v 2.5 1 0.5
v 2.5 3 3.5
v 2.5 3 2.5
v 2.5 3 1.5
v 2.5 3 0.5
v 2.5 4 3.5
v 2.5 4 2.5
v 2.5 4 1.5
v 2.5 4 0.5
v 2.5 5 3.5
v 2.5 5 2.5
v 2.5 5 1.5
v 2.5 5 0.5
v -3.5 0 3.5
v -3.5 1 3.5
v -3.5 1 2.5
v -3.5 0 2.5
v -3.5 1 1.5
v -3.5 0 1.5
v -3.5 1 0.5
v -3.5 0 0.5
v -3.5 2 3.5
v -3.5 2 2.5
v -3.5 2 1.5
v -3.5 2 0.5
v -3.5 3 3.5
v -3.5 3 2.5
v -3.5 3 1.5
v -3.5 3 0.5
v -3.5 4 3.5
v -3.5 4 2.5
v -3.5 4 1.5
v -3.5 4 0.5
v -3.5 5 3.5
v -3.5 5 2.5
v -3.5 5 1.5
v -3.5 5 0.5
v -3.5 6 3.5
v -3.5 6 2.5
v -3.5 6 1.5
v -3.5 6 0.5
v 1.5 5 0.5
v 1.5 6 0.5
v 1.5 5 1.5
v 1.5 6 1.5
v 1.5 5 2.5
v 1.5 6 2.5
v 1.5 5 3.5
v 1.5 6 3.5
v -1.5 6 0.5
v -1.5 7 0.5
v -1.5 6 3.5
v -1.5 7 3.5
v -1.5 7 2.5
v -1.5 6 2.5
v -1.5 7 1.5
v -1.5 6 1.5
v -2.5 3 -1.5
v -2.5 3 -2.5
v -2.5 4 -2.5
v -2.5 4 -1.5
v -2.5 4 -0.5
v -2.5 5 -1.5
v -2.5 5 -0.5
v 3.5 0 -1.5
v 3.5 0 -2.5
v 3.5 1 -2.5
v 3.5 1 -1.5
v 3.5 1 -0.5
v 3.5 2 -1.5
v 3.5 2 -0.5
v 1.5 7 -2.5
v 1.5 7 -1.5
v 3.5 4 -1.5
v 3.5 4 -2.5
v 3.5 5 -2.5
v 3.5 5 -1.5
v -1.5 5 -0.5
v -1.5 5 -1.5
v 3.5 2 -2.5
v 3.5 3 -2.5
v 3.5 3 -1.5
v 3.5 6 -2.5
v 3.5 6 -1.5
v 1.5 7 -0.5
v -2.5 4 -3.5
v -2.5 5 -3.5
v -2.5 5 -2.5
v 3.5 5 -3.5
v 3.5 6 -3.5
v 1.5 7 -3.5
v 3.5 2 -3.5
v 3.5 3 -3.5
v 3.5 0 -3.5
v 3.5 1 -3.5
v 3.5 5 -0.5
v 3.5 6 -0.5
v -2.5 3 -0.5
v -1.5 5 -2.5
v -1.5 5 -3.5
v 3.5 0 -0.5
v 3.5 4 -3.5
v 3.5 4 -0.5
v -2.5 3 -3.5
v -2.5 1 -0.5
v -2.5 1 -1.5
v -2.5 2 -1.5
v -2.5 2 -0.5
v -2.5 1 -2.5
v -2.5 2 -2.5
v -2.5 1 -3.5
v -2.5 2 -3.5
v 3.5 3 -0.5
v 3.5 0 3.5
v 3.5 0 2.5
v 3.5 1 2.5
v 3.5 1 3.5
v 3.5 0 1.5
v 3.5 1 1.5
v 3.5 0 0.5
v 3.5 1 0.5
v 3.5 2 2.5
v 3.5 2 3.5
v 3.5 2 1.5
v 3.5 2 0.5
v 3.5 3 2.5
v 3.5 3 3.5
v 3.5 3 1.5
v 3.5 3 0.5
v 3.5 4 2.5
v 3.5 4 3.5
v 3.5 4 1.5
v 3.5 4 0.5
v 3.5 5 2.5
v 3.5 5 3.5
v 3.5 5 1.5
v 3.5 5 0.5
v 3.5 6 2.5
v 3.5 6 3.5
v 3.5 6 1.5
v 3.5 6 0.5
v -2.5 1 3.5
v -2.5 1 2.5
v -2.5 2 2.5
v -2.5 2 3.5
v -2.5 1 1.5
v -2.5 2 1.5
v -2.5 1 0.5
v -2.5 2 0.5
v -2.5 3 2.5
v -2.5 3 3.5
v -2.5 3 1.5
v -2.5 3 0.5
v -2.5 4 2.5
v -2.5 4 3.5
v -2.5 4 1.5
v -2.5 4 0.5
v -2.5 5 2.5
v -2.5 5 3.5
v -2.5 5 1.5
v -2.5 5 0.5
v -1.5 5 3.5
v -1.5 5 2.5
v -1.5 5 1.5
v -1.5 5 0.5
v 1.5 7 0.5
v 1.5 7 1.5
v 1.5 7 2.5
v 1.5 7 3.5
v 1.5 0 3.5
v 2.5 0 3.5
v 1.5 1 3.5
v -2.5 0 3.5
v -1.5 0 3.5
v -1.5 1 3.5
v -0.5 0 3.5
v -0.5 1 3.5
v 0.5 0 3.5
v 0.5 1 3.5
v 2.5 6 3.5
v -2.5 6 3.5
v 0.5 6 3.5
v 0.5 7 3.5
v -0.5 6 3.5
v -0.5 7 3.5
v -2.5 0 -3.5
v -1.5 1 -3.5
v -1.5 0 -3.5
v -0.5 0 -3.5
v -0.5 1 -3.5
v 0.5 1 -3.5
v 0.5 0 -3.5
v -0.5 6 -3.5
v -0.5 7 -3.5
v 0.5 7 -3.5
v 0.5 6 -3.5
v 1.5 1 -3.5
v 1.5 0 -3.5
v 2.5 6 -3.5
v 2.5 0 -3.5
v -2.5 6 -3.5
v -2.5 0 -2.5
v -1.5 0 -2.5
v -0.5 6 -0.5
v -0.5 6 -1.5
v 0.5 6 -1.5
v 0.5 6 -0.5
v -2.5 0 -1.5
v -1.5 0 -1.5
v -2.5 0 -0.5
v -1.5 0 -0.5
v 2.5 0 -1.5
v 2.5 0 -2.5
v -0.5 0 -2.5
v 0.5 0 -2.5
v -0.5 0 -1.5
v 0.5 0 -1.5
v 1.5 0 -2.5
v 1.5 0 -1.5
v 0.5 6 -2.5
v -0.5 6 -2.5
v -0.5 0 -0.5
v 0.5 0 -0.5
v 1.5 0 -0.5
v 2.5 0 -0.5
v -2.5 0 0.5
v -1.5 0 0.5
v 1.5 0 0.5
v 2.5 0 0.5
v 1.5 0 1.5
v 2.5 0 1.5
v 1.5 0 2.5
v 2.5 0 2.5
v -2.5 0 2.5
v -1.5 0 2.5
v -2.5 0 1.5
v -1.5 0 1.5
v -0.5 0 2.5
v 0.5 0 2.5
v -0.5 0 1.5
v 0.5 0 1.5
v -0.5 0 0.5
v 0.5 0 0.5
v 0.5 6 0.5
v 0.5 6 1.5
v 0.5 6 2.5
v -0.5 6 0.5
v -0.5 6 1.5
v -0.5 6 2.5
v -1.5 1 -2.5
v -0.5 7 -0.5
v 0.5 7 -0.5
v 0.5 7 -1.5
v -0.5 7 -1.5
v -1.5 1 -1.5
v -1.5 1 -0.5
v -2.5 6 -0.5
v -2.5 6 -1.5
v 2.5 6 -1.5
v 2.5 6 -2.5
v 2.5 6 -0.5
v -2.5 6 -2.5
v -0.5 1 -2.5
v 0.5 1 -2.5
v -0.5 1 -1.5
v 0.5 1 -1.5
v 1.5 1 -1.5
v 1.5 1 -2.5
v 0.5 7 -2.5
v -0.5 7 -2.5
v -0.5 1 -0.5
v 0.5 1 -0.5
v 1.5 1 -0.5
v -1.5 1 0.5
v 1.5 1 0.5
v 1.5 1 1.5
v 1.5 1 2.5
v -1.5 1 2.5
v -1.5 1 1.5
v -0.5 1 2.5
v 0.5 1 2.5
v -0.5 1 1.5
v 0.5 1 1.5
v -0.5 1 0.5
v 0.5 1 0.5
v 2.5 6 2.5
v 2.5 6 1.5
v 2.5 6 0.5
v -2.5 6 2.5
v -2.5 6 1.5
v -2.5 6 0.5
v 0.5 7 0.5
v 0.5 7 1.5
v 0.5 7 2.5
v -0.5 7 0.5
v -0.5 7 1.5
v -0.5 7 2.5

# faces

usemtl palette

f 1/3/1 2/3/1 3/3/1 4/3/1

f 5/3/1 6/3/1 7/3/1 2/3/1

f 6/3/1 8/3/1 9/3/1 7/3/1

f 10/3/1 11/3/1 12/3/1 13/3/1

f 14/3/1 15/3/1 11/3/1 10/3/1

f 7/3/1 9/3/1 16/3/1 17/3/1

f 18/3/1 19/3/1 20/3/1 21/3/1

f 22/3/1 23/3/1 24/3/1 25/3/1

f 26/3/1 27/3/1 28/3/1 29/3/1

f 30/3/1 31/3/1 32/3/1 33/3/1

f 20/3/1 34/3/1 35/3/1 36/3/1

f 3/3/1 17/3/1 37/3/1 38/3/1

f 13/3/1 12/3/1 39/3/1 40/3/1

f 36/3/1 35/3/1 41/3/1 42/3/1

f 25/3/1 24/3/1 31/3/1 30/3/1

f 2/3/1 7/3/1 17/3/1 3/3/1

f 43/3/1 5/3/1 2/3/1 1/3/1

f 44/3/1 45/3/1 46/3/1 47/3/1

f 47/3/1 46/3/1 48/3/1 49/3/1

f 49/3/1 48/3/1 50/3/1 51/3/1

f 29/3/1 28/3/1 52/3/1 53/3/1

f 54/3/1 55/3/1 27/3/1 26/3/1

f 4/3/1 3/3/1 38/3/1 56/3/1

f 45/3/1 57/3/1 58/3/1 46/3/1

f 46/3/1 58/3/1 59/3/1 48/3/1

f 48/3/1 59/3/1 60/3/1 50/3/1

f 34/3/1 26/3/1 29/3/1 35/3/1

f 19/3/1 61/3/1 34/3/1 20/3/1

f 61/3/1 54/3/1 26/3/1 34/3/1

f 35/3/1 29/3/1 53/3/1 41/3/1

f 57/3/1 43/3/1 1/3/1 58/3/1

f 58/3/1 1/3/1 4/3/1 59/3/1

f 59/3/1 4/3/1 56/3/1 60/3/1

f 62/3/1 36/3/1 42/3/1 63/3/1

f 21/3/1 20/3/1 36/3/1 62/3/1

f 17/3/1 16/3/1 64/3/1 37/3/1

f 65/3/1 66/3/1 67/3/1 68/3/1

f 68/3/1 67/3/1 69/3/1 70/3/1

f 70/3/1 69/3/1 71/3/1 72/3/1

f 72/3/1 71/3/1 19/3/1 18/3/1

f 66/3/1 73/3/1 74/3/1 67/3/1

f 67/3/1 74/3/1 75/3/1 69/3/1

f 69/3/1 75/3/1 76/3/1 71/3/1

f 71/3/1 76/3/1 61/3/1 19/3/1

f 73/3/1 77/3/1 78/3/1 74/3/1

f 74/3/1 78/3/1 79/3/1 75/3/1

f 75/3/1 79/3/1 80/3/1 76/3/1

f 76/3/1 80/3/1 54/3/1 61/3/1

f 77/3/1 81/3/1 82/3/1 78/3/1

f 78/3/1 82/3/1 83/3/1 79/3/1

f 79/3/1 83/3/1 84/3/1 80/3/1

f 80/3/1 84/3/1 55/3/1 54/3/1

f 85/3/1 86/3/1 87/3/1 88/3/1

f 88/3/1 87/3/1 89/3/1 90/3/1

f 90/3/1 89/3/1 91/3/1 92/3/1

f 92/3/1 91/3/1 45/3/1 44/3/1

f 86/3/1 93/3/1 94/3/1 87/3/1

f 87/3/1 94/3/1 95/3/1 89/3/1

f 89/3/1 95/3/1 96/3/1 91/3/1

f 91/3/1 96/3/1 57/3/1 45/3/1

f 93/3/1 97/3/1 98/3/1 94/3/1

f 94/3/1 98/3/1 99/3/1 95/3/1

f 95/3/1 99/3/1 100/3/1 96/3/1

f 96/3/1 100/3/1 43/3/1 57/3/1

f 97/3/1 101/3/1 102/3/1 98/3/1

f 98/3/1 102/3/1 103/3/1 99/3/1

f 99/3/1 103/3/1 104/3/1 100/3/1

f 100/3/1 104/3/1 5/3/1 43/3/1

f 101/3/1 105/3/1 106/3/1 102/3/1

f 102/3/1 106/3/1 107/3/1 103/3/1

f 103/3/1 107/3/1 108/3/1 104/3/1

f 104/3/1 108/3/1 6/3/1 5/3/1

f 105/3/1 109/3/1 110/3/1 106/3/1

f 106/3/1 110/3/1 111/3/1 107/3/1

f 107/3/1 111/3/1 112/3/1 108/3/1

f 108/3/1 112/3/1 8/3/1 6/3/1

f 113/3/1 114/3/1 15/3/1 14/3/1

f 115/3/1 116/3/1 114/3/1 113/3/1

f 117/3/1 118/3/1 116/3/1 115/3/1

f 119/3/1 120/3/1 118/3/1 117/3/1

f 121/3/1 122/3/1 23/3/1 22/3/1

f 123/3/1 124/3/1 125/3/1 126/3/1

f 126/3/1 125/3/1 127/3/1 128/3/1

f 128/3/1 127/3/1 122/3/1 121/3/1

f 129/3/2 130/3/2 131/3/2 132/3/2

f 133/3/2 132/3/2 134/3/2 135/3/2

f 136/3/2 137/3/2 138/3/2 139/3/2

f 140/3/2 139/3/2 141/3/2 142/3/2

f 11/3/2 12/3/2 143/3/2 144/3/2

f 145/3/2 146/3/2 147/3/2 148/3/2

f 149/3/2 150/3/2 25/3/2 22/3/2

f 141/3/2 151/3/2 152/3/2 153/3/2

f 148/3/2 147/3/2 154/3/2 155/3/2

f 15/3/2 11/3/2 144/3/2 156/3/2

f 131/3/2 157/3/2 158/3/2 159/3/2

f 147/3/2 160/3/2 161/3/2 154/3/2

f 12/3/2 39/3/2 162/3/2 143/3/2

f 151/3/2 163/3/2 164/3/2 152/3/2

f 137/3/2 165/3/2 166/3/2 138/3/2

f 167/3/2 148/3/2 155/3/2 168/3/2

f 132/3/2 131/3/2 159/3/2 134/3/2

f 169/3/2 129/3/2 132/3/2 133/3/2

f 170/3/2 171/3/2 33/3/2 30/3/2

f 172/3/2 136/3/2 139/3/2 140/3/2

f 146/3/2 173/3/2 160/3/2 147/3/2

f 174/3/2 145/3/2 148/3/2 167/3/2

f 130/3/2 175/3/2 157/3/2 131/3/2

f 176/3/2 177/3/2 178/3/2 179/3/2

f 177/3/2 180/3/2 181/3/2 178/3/2

f 180/3/2 182/3/2 183/3/2 181/3/2

f 153/3/2 152/3/2 146/3/2 145/3/2

f 150/3/2 170/3/2 30/3/2 25/3/2

f 142/3/2 141/3/2 153/3/2 184/3/2

f 184/3/2 153/3/2 145/3/2 174/3/2

f 152/3/2 164/3/2 173/3/2 146/3/2

f 179/3/2 178/3/2 129/3/2 169/3/2

f 178/3/2 181/3/2 130/3/2 129/3/2

f 181/3/2 183/3/2 175/3/2 130/3/2

f 138/3/2 166/3/2 163/3/2 151/3/2

f 139/3/2 138/3/2 151/3/2 141/3/2

f 185/3/2 186/3/2 187/3/2 188/3/2

f 186/3/2 189/3/2 190/3/2 187/3/2

f 189/3/2 191/3/2 192/3/2 190/3/2

f 191/3/2 172/3/2 140/3/2 192/3/2

f 188/3/2 187/3/2 193/3/2 194/3/2

f 187/3/2 190/3/2 195/3/2 193/3/2

f 190/3/2 192/3/2 196/3/2 195/3/2

f 192/3/2 140/3/2 142/3/2 196/3/2

f 194/3/2 193/3/2 197/3/2 198/3/2

f 193/3/2 195/3/2 199/3/2 197/3/2

f 195/3/2 196/3/2 200/3/2 199/3/2

f 196/3/2 142/3/2 184/3/2 200/3/2

f 198/3/2 197/3/2 201/3/2 202/3/2

f 197/3/2 199/3/2 203/3/2 201/3/2

f 199/3/2 200/3/2 204/3/2 203/3/2

f 200/3/2 184/3/2 174/3/2 204/3/2

f 202/3/2 201/3/2 205/3/2 206/3/2

f 201/3/2 203/3/2 207/3/2 205/3/2

f 203/3/2 204/3/2 208/3/2 207/3/2

f 204/3/2 174/3/2 167/3/2 208/3/2

f 206/3/2 205/3/2 209/3/2 210/3/2

f 205/3/2 207/3/2 211/3/2 209/3/2

f 207/3/2 208/3/2 212/3/2 211/3/2

f 208/3/2 167/3/2 168/3/2 212/3/2

f 213/3/2 214/3/2 215/3/2 216/3/2

f 214/3/2 217/3/2 218/3/2 215/3/2

f 217/3/2 219/3/2 220/3/2 218/3/2

f 219/3/2 176/3/2 179/3/2 220/3/2

f 216/3/2 215/3/2 221/3/2 222/3/2

f 215/3/2 218/3/2 223/3/2 221/3/2

f 218/3/2 220/3/2 224/3/2 223/3/2

f 220/3/2 179/3/2 169/3/2 224/3/2

f 222/3/2 221/3/2 225/3/2 226/3/2

f 221/3/2 223/3/2 227/3/2 225/3/2

f 223/3/2 224/3/2 228/3/2 227/3/2

f 224/3/2 169/3/2 133/3/2 228/3/2

f 226/3/2 225/3/2 229/3/2 230/3/2

f 225/3/2 227/3/2 231/3/2 229/3/2

f 227/3/2 228/3/2 232/3/2 231/3/2

f 228/3/2 133/3/2 135/3/2 232/3/2

f 233/3/2 234/3/2 126/3/2 123/3/2

f 234/3/2 235/3/2 128/3/2 126/3/2

f 235/3/2 236/3/2 121/3/2 128/3/2

f 236/3/2 149/3/2 22/3/2 121/3/2

f 114/3/2 15/3/2 156/3/2 237/3/2

f 116/3/2 114/3/2 237/3/2 238/3/2

f 118/3/2 116/3/2 238/3/2 239/3/2

f 120/3/2 118/3/2 239/3/2 240/3/2

f 241/4/3 242/4/3 65/4/3 243/4/3

f 244/4/3 245/4/3 246/4/3 213/4/3

f 245/3/3 247/3/3 248/3/3 246/3/3

f 247/3/3 249/3/3 250/3/3 248/3/3

f 249/2/3 241/2/3 243/2/3 250/2/3

f 242/3/3 185/3/3 188/3/3 65/3/3

f 65/3/3 188/3/3 194/3/3 66/3/3

f 66/3/3 194/3/3 198/3/3 73/3/3

f 73/3/3 198/3/3 202/3/3 77/3/3

f 77/3/3 202/3/3 206/3/3 81/3/3

f 81/3/3 206/3/3 210/3/3 251/3/3

f 85/3/3 244/3/3 213/3/3 86/3/3

f 86/3/3 213/3/3 216/3/3 93/3/3

f 93/3/3 216/3/3 222/3/3 97/3/3

f 97/3/3 222/3/3 226/3/3 101/3/3

f 101/3/3 226/3/3 230/3/3 105/3/3

f 105/3/3 230/3/3 252/3/3 109/3/3

f 230/3/3 233/3/3 123/3/3 252/3/3

f 119/3/3 81/3/3 251/3/3 120/3/3

f 253/3/3 120/3/3 240/3/3 254/3/3

f 123/3/3 255/3/3 256/3/3 124/3/3

f 255/3/3 253/3/3 254/3/3 256/3/3

f 257/4/4 182/4/4 258/4/4 259/4/4

f 260/3/4 261/3/4 262/3/4 263/3/4

f 259/3/4 258/3/4 261/3/4 260/3/4

f 264/3/4 265/3/4 266/3/4 267/3/4

f 33/3/4 32/3/4 265/3/4 264/3/4

f 263/2/4 262/2/4 268/2/4 269/2/4

f 38/3/4 37/3/4 158/3/4 157/3/4

f 52/3/4 270/3/4 161/3/4 160/3/4

f 267/3/4 266/3/4 162/3/4 39/3/4

f 40/3/4 39/3/4 270/3/4 52/3/4

f 42/3/4 41/3/4 164/3/4 163/3/4

f 269/4/4 268/4/4 63/4/4 271/4/4

f 271/3/4 63/3/4 166/3/4 165/3/4

f 51/3/4 50/3/4 182/3/4 257/3/4

f 158/3/4 272/3/4 33/3/4 171/3/4

f 53/3/4 52/3/4 160/3/4 173/3/4

f 56/3/4 38/3/4 157/3/4 175/3/4

f 50/3/4 60/3/4 183/3/4 182/3/4

f 41/3/4 53/3/4 173/3/4 164/3/4

f 60/3/4 56/3/4 175/3/4 183/3/4

f 63/3/4 42/3/4 163/3/4 166/3/4

f 37/3/4 64/3/4 272/3/4 158/3/4

f 273/4/5 257/4/5 259/4/5 274/4/5

f 275/1/5 276/1/5 277/1/5 278/1/5

f 279/4/5 273/4/5 274/4/5 280/4/5

f 281/4/5 279/4/5 280/4/5 282/4/5

f 10/3/5 13/3/5 28/3/5 27/3/5

f 283/3/5 284/3/5 137/3/5 136/3/5

f 14/3/5 10/3/5 27/3/5 55/3/5

f 22/3/5 25/3/5 276/3/5 275/3/5

f 285/3/5 260/3/5 263/3/5 286/3/5

f 274/3/5 259/3/5 260/3/5 285/3/5

f 280/3/5 274/3/5 285/3/5 287/3/5

f 288/2/5 286/2/5 289/2/5 290/2/5

f 277/3/5 291/3/5 12/3/5 11/3/5

f 292/3/5 264/3/5 267/3/5 291/3/5

f 276/1/5 292/1/5 291/1/5 277/1/5

f 282/3/5 280/3/5 287/3/5 293/3/5

f 30/3/5 33/3/5 264/3/5 292/3/5

f 135/3/5 134/3/5 150/3/5 149/3/5

f 293/3/5 287/3/5 288/3/5 294/3/5

f 294/3/5 288/3/5 290/3/5 295/3/5

f 287/3/5 285/3/5 286/3/5 288/3/5

f 286/2/5 263/2/5 269/2/5 289/2/5

f 278/3/5 277/3/5 11/3/5 15/3/5

f 291/3/5 267/3/5 39/3/5 12/3/5

f 13/3/5 40/3/5 52/3/5 28/3/5

f 295/4/5 290/4/5 283/4/5 296/4/5

f 290/4/5 289/4/5 284/4/5 283/4/5

f 289/4/5 269/4/5 271/4/5 284/4/5

f 284/3/5 271/3/5 165/3/5 137/3/5

f 25/3/5 30/3/5 292/3/5 276/3/5

f 44/3/5 47/3/5 279/3/5 281/3/5

f 47/3/5 49/3/5 273/3/5 279/3/5

f 49/3/5 51/3/5 257/3/5 273/3/5

f 159/3/5 158/3/5 171/3/5 170/3/5

f 296/3/5 283/3/5 136/3/5 172/3/5

f 134/3/5 159/3/5 170/3/5 150/3/5

f 297/4/5 281/4/5 282/4/5 298/4/5

f 299/4/5 295/4/5 296/4/5 300/4/5

f 301/4/5 299/4/5 300/4/5 302/4/5

f 303/4/5 301/4/5 302/4/5 304/4/5

f 241/4/5 303/4/5 304/4/5 242/4/5

f 244/4/5 305/4/5 306/4/5 245/4/5

f 305/4/5 307/4/5 308/4/5 306/4/5

f 307/4/5 297/4/5 298/4/5 308/4/5

f 245/3/5 306/3/5 309/3/5 247/3/5

f 247/3/5 309/3/5 310/3/5 249/3/5

f 249/2/5 310/2/5 303/2/5 241/2/5

f 306/3/5 308/3/5 311/3/5 309/3/5

f 309/3/5 311/3/5 312/3/5 310/3/5

f 310/3/5 312/3/5 301/3/5 303/3/5

f 308/2/5 298/2/5 313/2/5 311/2/5

f 311/3/5 313/3/5 314/3/5 312/3/5

f 312/3/5 314/3/5 299/3/5 301/3/5

f 298/3/5 282/3/5 293/3/5 313/3/5

f 313/3/5 293/3/5 294/3/5 314/3/5

f 314/3/5 294/3/5 295/3/5 299/3/5

f 242/3/5 304/3/5 186/3/5 185/3/5

f 304/3/5 302/3/5 189/3/5 186/3/5

f 302/3/5 300/3/5 191/3/5 189/3/5

f 300/3/5 296/3/5 172/3/5 191/3/5

f 85/3/5 88/3/5 305/3/5 244/3/5

f 88/3/5 90/3/5 307/3/5 305/3/5

f 90/3/5 92/3/5 297/3/5 307/3/5

f 92/3/5 44/3/5 281/3/5 297/3/5

f 230/3/5 229/3/5 234/3/5 233/3/5

f 113/3/5 14/3/5 55/3/5 84/3/5

f 115/3/5 113/3/5 84/3/5 83/3/5

f 117/3/5 115/3/5 83/3/5 82/3/5

f 119/3/5 117/3/5 82/3/5 81/3/5

f 229/3/5 231/3/5 235/3/5 234/3/5

f 231/3/5 232/3/5 236/3/5 235/3/5

f 232/3/5 135/3/5 149/3/5 236/3/5

f 315/3/5 278/3/5 15/3/5 114/3/5

f 316/3/5 315/3/5 114/3/5 116/3/5

f 317/3/5 316/3/5 116/3/5 118/3/5

f 253/3/5 317/3/5 118/3/5 120/3/5

f 318/3/5 275/3/5 278/3/5 315/3/5

f 121/3/5 22/3/5 275/3/5 318/3/5

f 319/1/5 318/1/5 315/1/5 316/1/5

f 123/3/5 126/3/5 320/3/5 255/3/5

f 255/3/5 320/3/5 317/3/5 253/3/5

f 126/3/5 128/3/5 319/3/5 320/3/5

f 320/1/5 319/1/5 316/1/5 317/1/5

f 128/3/5 121/3/5 318/3/5 319/3/5

f 180/4/6 321/4/6 258/4/6 182/4/6

f 322/1/6 323/1/6 324/1/6 325/1/6

f 177/4/6 326/4/6 321/4/6 180/4/6

f 176/4/6 327/4/6 326/4/6 177/4/6

f 8/3/6 328/3/6 329/3/6 9/3/6

f 11/3/6 330/3/6 331/3/6 12/3/6

f 15/3/6 332/3/6 330/3/6 11/3/6

f 9/3/6 329/3/6 333/3/6 16/3/6

f 23/3/6 322/3/6 325/3/6 24/3/6

f 334/3/6 335/3/6 262/3/6 261/3/6

f 321/3/6 334/3/6 261/3/6 258/3/6

f 326/3/6 336/3/6 334/3/6 321/3/6

f 337/2/6 338/2/6 339/2/6 335/2/6

f 324/3/6 144/3/6 143/3/6 340/3/6

f 341/3/6 340/3/6 266/3/6 265/3/6

f 325/1/6 324/1/6 340/1/6 341/1/6

f 327/3/6 342/3/6 336/3/6 326/3/6

f 31/3/6 341/3/6 265/3/6 32/3/6

f 328/3/6 22/3/6 25/3/6 329/3/6

f 342/3/6 343/3/6 337/3/6 336/3/6

f 343/3/6 344/3/6 338/3/6 337/3/6

f 336/3/6 337/3/6 335/3/6 334/3/6

f 335/2/6 339/2/6 268/2/6 262/2/6

f 330/3/6 155/3/6 154/3/6 331/3/6

f 323/3/6 156/3/6 144/3/6 324/3/6

f 331/3/6 154/3/6 161/3/6 270/3/6

f 340/3/6 143/3/6 162/3/6 266/3/6

f 12/3/6 331/3/6 270/3/6 39/3/6

f 344/4/6 18/4/6 21/4/6 338/4/6

f 338/4/6 21/4/6 62/4/6 339/4/6

f 339/4/6 62/4/6 63/4/6 268/4/6

f 24/3/6 325/3/6 341/3/6 31/3/6

f 332/3/6 168/3/6 155/3/6 330/3/6

f 333/3/6 30/3/6 33/3/6 272/3/6

f 329/3/6 25/3/6 30/3/6 333/3/6

f 16/3/6 333/3/6 272/3/6 64/3/6

f 219/4/6 345/4/6 327/4/6 176/4/6

f 346/4/6 72/4/6 18/4/6 344/4/6

f 347/4/6 70/4/6 72/4/6 346/4/6

f 348/4/6 68/4/6 70/4/6 347/4/6

f 243/4/6 65/4/6 68/4/6 348/4/6

f 213/4/6 246/4/6 349/4/6 214/4/6

f 214/4/6 349/4/6 350/4/6 217/4/6

f 217/4/6 350/4/6 345/4/6 219/4/6

f 246/3/6 248/3/6 351/3/6 349/3/6

f 248/3/6 250/3/6 352/3/6 351/3/6

f 250/2/6 243/2/6 348/2/6 352/2/6

f 349/3/6 351/3/6 353/3/6 350/3/6

f 351/3/6 352/3/6 354/3/6 353/3/6

f 352/3/6 348/3/6 347/3/6 354/3/6

f 350/2/6 353/2/6 355/2/6 345/2/6

f 353/3/6 354/3/6 356/3/6 355/3/6

f 354/3/6 347/3/6 346/3/6 356/3/6

f 345/3/6 355/3/6 342/3/6 327/3/6

f 355/3/6 356/3/6 343/3/6 342/3/6

f 356/3/6 346/3/6 344/3/6 343/3/6

f 251/3/6 210/3/6 209/3/6 357/3/6

f 357/3/6 209/3/6 211/3/6 358/3/6

f 358/3/6 211/3/6 212/3/6 359/3/6

f 359/3/6 212/3/6 168/3/6 332/3/6

f 109/3/6 252/3/6 360/3/6 110/3/6

f 110/3/6 360/3/6 361/3/6 111/3/6

f 111/3/6 361/3/6 362/3/6 112/3/6

f 112/3/6 362/3/6 328/3/6 8/3/6

f 252/3/6 123/3/6 126/3/6 360/3/6

f 114/3/6 359/3/6 332/3/6 15/3/6

f 116/3/6 358/3/6 359/3/6 114/3/6

f 118/3/6 357/3/6 358/3/6 116/3/6

f 120/3/6 251/3/6 357/3/6 118/3/6

f 360/3/6 126/3/6 128/3/6 361/3/6

f 361/3/6 128/3/6 121/3/6 362/3/6

f 362/3/6 121/3/6 22/3/6 328/3/6

f 363/3/6 237/3/6 156/3/6 323/3/6

f 364/3/6 238/3/6 237/3/6 363/3/6

f 365/3/6 239/3/6 238/3/6 364/3/6

f 254/3/6 240/3/6 239/3/6 365/3/6

f 366/3/6 363/3/6 323/3/6 322/3/6

f 122/3/6 366/3/6 322/3/6 23/3/6

f 367/1/6 364/1/6 363/1/6 366/1/6

f 124/3/6 256/3/6 368/3/6 125/3/6

f 256/3/6 254/3/6 365/3/6 368/3/6

f 125/3/6 368/3/6 367/3/6 127/3/6

f 368/1/6 365/1/6 364/1/6 367/1/6

f 127/3/6 367/3/6 366/3/6 122/3/6

# numNormals 6
# numTexCoords 4
# numVerts 368
# numFaces 380
