# File produced by Open Asset Import Library (http://www.assimp.sf.net)
# (assimp v3.1.187496374)

mtllib Hallway End.obj.mtl

# 258 vertex positions
v  1.5 -2.5 5
v  1.5 -2.5 6
v  1.5 -1.5 6
v  1.5 -1.5 5
v  2.5 -1.5 5
v  2.5 -2.5 5
v  1.5 -0.5 6
v  1.5 -0.5 5
v  2.5 -0.5 5
v  2.5 -1.5 4
v  2.5 -2.5 4
v  2.5 -3.5 4
v  2.5 -3.5 5
v  2.5 -2.5 3
v  2.5 -3.5 3
v  2.5 -1.5 3
v  2.5 -0.5 4
v  2.5 -2.5 2
v  2.5 -3.5 2
v  3.5 -3.5 3
v  3.5 -3.5 4
v  2.5 -3.5 1
v  3.5 -3.5 2
v  2.5 -1.5 2
v  2.5 -2.5 1
v  3.5 -3.5 1
v  2.5 -3.5 0
v  3.5 -2.5 2
v  3.5 -2.5 3
v  3.5 -2.5 1
v  3.5 -3.5 0
v  2.5 -2.5 0
v  3.5 -2.5 0
v  3.5 -1.5 1
v  3.5 -1.5 2
v  3.5 -1.5 3
v  3.5 -0.5 2
v  3.5 -0.5 3
v  3.5 -0.5 1
v  3.5 -1.5 0
v  2.5 -1.5 0
v  3.5 -0.5 0
v  3.5 0.5 1
v  3.5 0.5 2
v  3.5 0.5 3
v  2.5 0.5 1
v  2.5 0.5 2
v  3.5 0.5 0
v  2.5 0.5 0
v  2.5 -0.5 0
v  1.5 0.5 0
v  1.5 -0.5 0
v  1.5 0.5 1
v  0.5 0.5 0
v  0.5 -0.5 0
v  0.5 -1.5 0
v  1.5 -1.5 0
v  -0.5 -1.5 0
v  -0.5 -0.5 0
v  -0.5 0.5 0
v  0.5 0.5 1
v  -1.5 -0.5 0
v  -1.5 0.5 0
v  -0.5 0.5 1
v  0.5 0.5 2
v  1.5 0.5 2
v  -1.5 0.5 1
v  -0.5 0.5 2
v  0.5 0.5 3
v  1.5 0.5 3
v  2.5 0.5 3
v  1.5 0.5 4
v  2.5 0.5 4
v  3.5 0.5 4
v  2.5 0.5 5
v  3.5 0.5 5
v  3.5 -0.5 4
v  3.5 -0.5 5
v  3.5 0.5 6
v  1.5 0.5 5
v  2.5 0.5 6
v  3.5 -0.5 6
v  2.5 -0.5 6
v  3.5 -1.5 5
v  3.5 -1.5 4
v  3.5 -1.5 6
v  2.5 -1.5 6
v  2.5 -2.5 6
v  3.5 -2.5 5
v  3.5 -2.5 6
v  2.5 -3.5 6
v  3.5 -3.5 5
v  3.5 -3.5 6
v  3.5 -2.5 4
v  1.5 -1.5 7
v  1.5 -0.5 7
v  0.5 -2.5 6
v  0.5 -1.5 6
v  1.5 0.5 7
v  0.5 -1.5 7
v  0.5 -0.5 7
v  1.5 0.5 6
v  0.5 0.5 6
v  0.5 0.5 7
v  -0.5 -0.5 7
v  -0.5 0.5 6
v  -0.5 0.5 7
v  -0.5 0.5 5
v  0.5 0.5 5
v  -1.5 0.5 5
v  -1.5 0.5 6
v  -1.5 0.5 7
v  -1.5 -0.5 7
v  -1.5 -0.5 6
v  -2.5 0.5 5
v  -2.5 0.5 6
v  -2.5 -0.5 6
v  -3.5 0.5 4
v  -3.5 0.5 5
v  -2.5 0.5 4
v  -3.5 0.5 6
v  -3.5 -0.5 6
v  -2.5 -1.5 6
v  -3.5 -1.5 6
v  -3.5 -1.5 5
v  -3.5 -0.5 5
v  -3.5 -0.5 4
v  -3.5 -1.5 4
v  -3.5 -2.5 5
v  -3.5 -2.5 4
v  -3.5 -2.5 6
v  -3.5 -3.5 5
v  -3.5 -3.5 4
v  -3.5 -3.5 3
v  -3.5 -2.5 3
v  -2.5 -3.5 4
v  -2.5 -3.5 5
v  -3.5 -3.5 6
v  -2.5 -3.5 6
v  -2.5 -2.5 6
v  -1.5 -2.5 6
v  -1.5 -1.5 6
v  -1.5 -3.5 6
v  -2.5 -2.5 5
v  -1.5 -3.5 5
v  -1.5 -2.5 5
v  -2.5 -2.5 4
v  -2.5 -1.5 5
v  -1.5 -1.5 5
v  -1.5 -2.5 7
v  -1.5 -1.5 7
v  -0.5 -1.5 6
v  -0.5 -2.5 6
v  -0.5 -0.5 6
v  -1.5 -0.5 5
v  -0.5 -0.5 5
v  0.5 -0.5 6
v  -2.5 -1.5 4
v  -2.5 -0.5 5
v  -2.5 -1.5 3
v  -2.5 -0.5 4
v  -2.5 -0.5 3
v  -1.5 -0.5 4
v  -2.5 -1.5 2
v  -2.5 -2.5 2
v  -2.5 -2.5 3
v  -2.5 -0.5 2
v  -1.5 -0.5 3
v  -0.5 -0.5 4
v  -1.5 -0.5 2
v  -0.5 -0.5 3
v  0.5 -0.5 4
v  0.5 -0.5 5
v  0.5 -0.5 3
v  1.5 -0.5 4
v  -0.5 -0.5 2
v  0.5 -0.5 2
v  1.5 -0.5 3
v  -1.5 -0.5 1
v  -0.5 -0.5 1
v  0.5 -0.5 1
v  1.5 -0.5 2
v  2.5 -0.5 3
v  1.5 -0.5 1
v  2.5 -0.5 2
v  -0.5 -1.5 1
v  0.5 -1.5 1
v  2.5 -0.5 1
v  1.5 -1.5 1
v  2.5 -1.5 1
v  0.5 -2.5 1
v  1.5 -2.5 1
v  -0.5 -3.5 1
v  0.5 -3.5 1
v  -0.5 -2.5 1
v  -0.5 -3.5 0
v  -1.5 -3.5 0
v  -1.5 -3.5 1
v  0.5 -3.5 0
v  -0.5 -2.5 0
v  0.5 -2.5 0
v  -1.5 -2.5 0
v  1.5 -2.5 0
v  -1.5 -1.5 0
v  -1.5 -2.5 1
v  -1.5 -1.5 1
v  -2.5 -0.5 1
v  -2.5 -1.5 1
v  -2.5 -2.5 1
v  -2.5 -3.5 1
v  -2.5 -3.5 2
v  -3.5 -3.5 1
v  -3.5 -3.5 0
v  -2.5 -3.5 0
v  -2.5 -3.5 3
v  -3.5 -3.5 2
v  -3.5 -2.5 2
v  -3.5 -2.5 1
v  -3.5 -1.5 2
v  -3.5 -1.5 3
v  -3.5 -1.5 1
v  -3.5 -2.5 0
v  -3.5 -0.5 3
v  -3.5 -0.5 2
v  -3.5 0.5 3
v  -3.5 -0.5 1
v  -3.5 0.5 2
v  -2.5 0.5 3
v  -3.5 0.5 1
v  -2.5 0.5 2
v  -3.5 -1.5 0
v  -3.5 -0.5 0
v  -3.5 0.5 0
v  -2.5 0.5 1
v  -1.5 0.5 2
v  -1.5 0.5 3
v  -2.5 0.5 0
v  -2.5 -0.5 0
v  -0.5 0.5 3
v  -0.5 0.5 4
v  0.5 0.5 4
v  -1.5 0.5 4
v  -2.5 -1.5 0
v  -2.5 -2.5 0
v  -0.5 -1.5 7
v  -0.5 -2.5 7
v  -1.5 -3.5 7
v  -0.5 -3.5 7
v  0.5 -2.5 7
v  -0.5 -3.5 6
v  0.5 -3.5 7
v  1.5 -2.5 7
v  0.5 -3.5 6
v  1.5 -3.5 7
v  1.5 -3.5 6
v  1.5 -3.5 5
v  1.5 -3.5 0
v  1.5 -3.5 1

# 0 UV coordinates

# 32 vertex normals
vn -0.707107 0 -0.707107
vn 0.57735 -0.57735 0.57735
vn -0.301511 -0.904534 -0.301511
vn -0.57735 -0.57735 -0.57735
vn -1 0 0
vn -0.707107 -0.707107 0
vn 0.707107 -0.707107 0
vn -0.301511 -0.904534 0.301511
vn -0.707107 0 0.707107
vn 0 -0.707107 -0.707107
vn 1 0 0
vn 0.57735 -0.57735 -0.57735
vn 0 0 -1
vn 0.707107 0 -0.707107
vn 0.707107 0.707107 0
vn 0 1 0
vn 0.57735 0.57735 -0.57735
vn 0 0.707107 -0.707107
vn 0.57735 0.57735 0.57735
vn 0 0.707107 0.707107
vn 0.707107 0 0.707107
vn 0 0 1
vn 0 -0.707107 0.707107
vn 0.301511 0.904534 0.301511
vn -0.301511 0.904534 0.301511
vn -0.57735 0.57735 0.57735
vn -0.57735 -0.57735 0.57735
vn -0.707107 0.707107 0
vn 0.301511 -0.904534 -0.301511
vn 0 -1 0
vn 0.301511 -0.904534 0.301511
vn -0.57735 0.57735 -0.57735

# Mesh '' with 524 faces
usemtl $Material_0
f  1//1 2//1 3//1
f  1//1 3//1 4//1
f  1//1 4//1 5//1
f  1//1 5//1 6//1
f  4//1 3//1 7//2
f  4//1 7//2 8//3
f  4//1 8//3 9//4
f  4//1 9//4 5//1
f  10//5 5//1 9//4
f  11//5 6//1 5//1
f  11//5 5//1 10//5
f  12//6 13//3 6//1
f  12//6 6//1 11//5
f  14//5 11//5 10//5
f  15//6 12//6 11//5
f  15//6 11//5 14//5
f  14//5 10//5 16//5
f  16//5 10//5 17//6
f  10//5 9//4 17//6
f  18//5 14//5 16//5
f  19//6 15//6 14//5
f  19//6 14//5 18//5
f  15//6 20//7 21//7
f  15//6 21//7 12//6
f  19//6 20//7 15//6
f  22//8 19//6 18//5
f  22//8 23//7 19//6
f  19//6 23//7 20//7
f  18//5 16//5 24//5
f  25//9 18//5 24//5
f  22//8 18//5 25//9
f  22//8 26//7 23//7
f  27//10 26//7 22//8
f  26//7 28//11 23//7
f  23//7 28//11 29//11
f  23//7 29//11 20//7
f  26//7 30//11 28//11
f  31//12 30//11 26//7
f  27//10 31//12 26//7
f  27//10 32//13 33//14
f  27//10 33//14 31//12
f  31//12 33//14 30//11
f  30//11 34//11 35//11
f  30//11 35//11 28//11
f  33//14 34//11 30//11
f  28//11 35//11 36//11
f  28//11 36//11 29//11
f  34//11 37//11 35//11
f  35//11 37//11 38//11
f  35//11 38//11 36//11
f  34//11 39//11 37//11
f  40//14 39//11 34//11
f  33//14 40//14 34//11
f  32//13 40//14 33//14
f  32//13 41//13 40//14
f  40//14 42//14 39//11
f  41//13 42//14 40//14
f  42//14 43//15 39//11
f  39//11 43//15 44//15
f  39//11 44//15 37//11
f  37//11 44//15 45//15
f  37//11 45//15 38//11
f  46//16 47//16 44//15
f  46//16 44//15 43//15
f  47//16 45//15 44//15
f  42//14 48//17 43//15
f  49//18 46//16 43//15
f  49//18 43//15 48//17
f  41//13 50//13 42//14
f  50//13 48//17 42//14
f  50//13 49//18 48//17
f  51//18 46//16 49//18
f  52//13 51//18 49//18
f  52//13 49//18 50//13
f  51//18 53//16 46//16
f  53//16 47//16 46//16
f  54//18 53//16 51//18
f  55//13 54//18 51//18
f  55//13 51//18 52//13
f  56//13 55//13 52//13
f  56//13 52//13 57//13
f  58//13 59//13 55//13
f  58//13 55//13 56//13
f  59//13 54//18 55//13
f  60//18 61//16 54//18
f  54//18 61//16 53//16
f  59//13 60//18 54//18
f  62//13 60//18 59//13
f  63//18 64//16 60//18
f  60//18 64//16 61//16
f  62//13 63//18 60//18
f  64//16 65//16 61//16
f  61//16 65//16 66//16
f  61//16 66//16 53//16
f  63//18 67//16 64//16
f  67//16 68//16 64//16
f  64//16 68//16 65//16
f  68//16 69//16 65//16
f  65//16 69//16 70//16
f  65//16 70//16 66//16
f  53//16 66//16 47//16
f  66//16 70//16 71//16
f  66//16 71//16 47//16
f  70//16 72//16 73//16
f  70//16 73//16 71//16
f  47//16 71//16 45//15
f  71//16 73//16 74//15
f  71//16 74//15 45//15
f  73//16 75//16 76//15
f  73//16 76//15 74//15
f  38//11 45//15 74//15
f  38//11 74//15 77//11
f  77//11 74//15 76//15
f  77//11 76//15 78//11
f  78//11 76//15 79//19
f  75//16 79//19 76//15
f  80//16 81//20 75//16
f  75//16 81//20 79//19
f  78//11 79//19 82//21
f  83//22 82//21 79//19
f  83//22 79//19 81//20
f  84//11 78//11 82//21
f  85//11 77//11 78//11
f  85//11 78//11 84//11
f  84//11 82//21 86//21
f  87//22 86//21 82//21
f  87//22 82//21 83//22
f  3//5 87//22 83//22
f  3//5 83//22 7//2
f  7//2 83//22 81//20
f  2//5 88//22 87//22
f  2//5 87//22 3//5
f  88//22 86//21 87//22
f  89//11 84//11 86//21
f  89//11 86//21 90//21
f  88//22 90//21 86//21
f  91//23 90//21 88//22
f  92//7 89//11 90//21
f  92//7 90//21 93//2
f  91//23 93//2 90//21
f  21//7 94//11 89//11
f  21//7 89//11 92//7
f  94//11 84//11 89//11
f  13//3 92//7 93//2
f  12//6 21//7 92//7
f  12//6 92//7 13//3
f  13//3 93//2 91//23
f  20//7 94//11 21//7
f  29//11 85//11 94//11
f  20//7 29//11 94//11
f  94//11 85//11 84//11
f  29//11 36//11 85//11
f  36//11 77//11 85//11
f  36//11 38//11 77//11
f  2//5 3//5 95//21
f  3//5 7//2 96//21
f  3//5 96//21 95//21
f  97//13 98//13 3//5
f  97//13 3//5 2//5
f  98//13 7//2 3//5
f  7//2 99//19 96//21
f  100//22 95//21 96//21
f  100//22 96//21 101//22
f  101//22 96//21 99//19
f  7//2 102//24 99//19
f  103//16 104//20 99//19
f  103//16 99//19 102//24
f  101//22 99//19 104//20
f  105//22 101//22 104//20
f  106//16 107//20 104//20
f  106//16 104//20 103//16
f  105//22 104//20 107//20
f  108//16 106//16 103//16
f  108//16 103//16 109//16
f  109//16 103//16 102//24
f  110//16 111//25 106//16
f  110//16 106//16 108//16
f  111//25 107//20 106//16
f  111//25 112//26 107//20
f  113//9 105//22 107//20
f  113//9 107//20 112//26
f  114//27 113//9 112//26
f  114//27 112//26 111//25
f  115//16 116//20 111//25
f  115//16 111//25 110//16
f  117//22 114//27 111//25
f  117//22 111//25 116//20
f  118//28 119//28 115//16
f  118//28 115//16 120//16
f  120//16 115//16 110//16
f  119//28 116//20 115//16
f  119//28 121//26 116//20
f  122//9 117//22 116//20
f  122//9 116//20 121//26
f  123//22 114//27 117//22
f  124//9 123//22 117//22
f  124//9 117//22 122//9
f  125//5 124//9 122//9
f  125//5 122//9 126//5
f  126//5 122//9 121//26
f  126//5 121//26 119//28
f  127//5 126//5 119//28
f  127//5 119//28 118//28
f  128//5 125//5 126//5
f  128//5 126//5 127//5
f  129//5 124//9 125//5
f  130//5 129//5 125//5
f  130//5 125//5 128//5
f  129//5 131//9 124//9
f  131//9 123//22 124//9
f  132//6 131//9 129//5
f  133//6 132//6 129//5
f  133//6 129//5 130//5
f  134//6 133//6 130//5
f  134//6 130//5 135//5
f  134//6 136//7 133//6
f  133//6 136//7 137//29
f  133//6 137//29 132//6
f  132//6 138//27 131//9
f  132//6 137//29 139//23
f  132//6 139//23 138//27
f  138//27 139//23 140//22
f  138//27 140//22 131//9
f  131//9 140//22 123//22
f  140//22 141//5 142//5
f  140//22 142//5 123//22
f  139//23 141//5 140//22
f  137//29 143//30 139//23
f  139//23 143//30 141//5
f  136//7 144//14 137//29
f  137//29 145//12 143//30
f  137//29 144//14 146//14
f  137//29 146//14 145//12
f  147//11 148//14 144//14
f  136//7 147//11 144//14
f  144//14 148//14 149//14
f  144//14 149//14 146//14
f  146//14 149//14 142//5
f  146//14 142//5 141//5
f  145//12 146//14 141//5
f  145//12 141//5 143//30
f  141//5 150//9 151//9
f  141//5 151//9 142//5
f  143//30 150//9 141//5
f  141//5 142//5 152//13
f  141//5 152//13 153//13
f  143//30 141//5 153//13
f  142//5 154//10 152//13
f  142//5 151//9 113//9
f  142//5 113//9 114//27
f  149//14 114//27 142//5
f  142//5 114//27 154//10
f  123//22 142//5 114//27
f  155//29 156//30 154//10
f  155//29 154//10 114//27
f  156//30 157//10 154//10
f  149//14 155//29 114//27
f  148//14 155//29 149//14
f  158//11 159//12 148//14
f  147//11 158//11 148//14
f  148//14 159//12 155//29
f  160//11 161//7 158//11
f  158//11 161//7 159//12
f  161//7 155//29 159//12
f  160//11 162//7 161//7
f  162//7 163//30 161//7
f  161//7 163//30 155//29
f  164//11 162//7 160//11
f  165//11 164//11 160//11
f  165//11 160//11 166//11
f  164//11 167//7 162//7
f  167//7 168//30 162//7
f  162//7 168//30 163//30
f  168//30 169//30 163//30
f  163//30 169//30 156//30
f  163//30 156//30 155//29
f  167//7 170//30 168//30
f  170//30 171//30 168//30
f  168//30 171//30 169//30
f  171//30 172//30 169//30
f  169//30 172//30 173//30
f  169//30 173//30 156//30
f  156//30 173//30 157//10
f  172//30 8//3 173//30
f  173//30 8//3 7//2
f  173//30 7//2 157//10
f  171//30 174//30 172//30
f  172//30 175//30 8//3
f  170//30 176//30 171//30
f  176//30 174//30 171//30
f  176//30 177//30 174//30
f  177//30 178//30 174//30
f  179//23 180//23 176//30
f  179//23 176//30 170//30
f  180//23 177//30 176//30
f  180//23 181//23 177//30
f  181//23 182//30 177//30
f  177//30 182//30 178//30
f  182//30 183//6 178//30
f  178//30 183//6 17//6
f  178//30 17//6 175//30
f  181//23 184//23 182//30
f  184//23 185//6 182//30
f  182//30 185//6 183//6
f  186//22 187//22 181//23
f  186//22 181//23 180//23
f  187//22 184//23 181//23
f  184//23 188//27 185//6
f  187//22 189//22 184//23
f  190//9 24//5 185//6
f  190//9 185//6 188//27
f  24//5 183//6 185//6
f  25//9 24//5 190//9
f  24//5 16//5 183//6
f  16//5 17//6 183//6
f  191//22 192//22 189//22
f  191//22 189//22 187//22
f  193//23 194//23 191//22
f  193//23 191//22 195//22
f  195//22 191//22 187//22
f  196//10 194//23 193//23
f  197//10 196//10 193//23
f  197//10 193//23 198//23
f  198//23 193//23 195//22
f  196//10 199//10 194//23
f  196//10 200//13 201//13
f  196//10 201//13 199//10
f  197//10 200//13 196//10
f  197//10 202//13 200//13
f  202//13 58//13 200//13
f  200//13 58//13 56//13
f  200//13 56//13 201//13
f  201//13 56//13 57//13
f  201//13 57//13 203//13
f  202//13 204//13 58//13
f  205//22 195//22 186//22
f  198//23 195//22 205//22
f  195//22 187//22 186//22
f  205//22 186//22 206//22
f  207//2 179//23 170//30
f  207//2 170//30 167//7
f  208//21 207//2 167//7
f  208//21 167//7 164//11
f  209//21 208//21 164//11
f  209//21 164//11 165//11
f  210//31 209//21 165//11
f  210//31 165//11 211//7
f  211//7 165//11 166//11
f  212//6 210//31 211//7
f  213//4 214//10 210//31
f  213//4 210//31 212//6
f  211//7 166//11 215//7
f  212//6 211//7 216//6
f  216//6 211//7 215//7
f  215//7 166//11 147//11
f  215//7 147//11 136//7
f  216//6 215//7 134//6
f  134//6 215//7 136//7
f  212//6 216//6 217//5
f  216//6 134//6 135//5
f  216//6 135//5 217//5
f  218//5 217//5 219//5
f  212//6 217//5 218//5
f  217//5 135//5 220//5
f  217//5 220//5 219//5
f  218//5 219//5 221//5
f  213//4 212//6 218//5
f  213//4 218//5 222//1
f  222//1 218//5 221//5
f  219//5 220//5 223//5
f  219//5 223//5 224//5
f  221//5 219//5 224//5
f  220//5 128//5 127//5
f  220//5 127//5 223//5
f  224//5 223//5 225//28
f  223//5 127//5 118//28
f  223//5 118//28 225//28
f  221//5 224//5 226//5
f  226//5 224//5 227//28
f  224//5 225//28 227//28
f  227//28 225//28 228//16
f  225//28 118//28 120//16
f  225//28 120//16 228//16
f  226//5 227//28 229//28
f  229//28 227//28 230//16
f  227//28 228//16 230//16
f  231//1 221//5 226//5
f  231//1 226//5 232//1
f  232//1 226//5 229//28
f  232//1 229//28 233//32
f  233//32 229//28 234//16
f  229//28 230//16 234//16
f  234//16 230//16 235//16
f  230//16 228//16 236//16
f  230//16 236//16 235//16
f  233//32 234//16 237//18
f  237//18 234//16 67//16
f  234//16 235//16 67//16
f  232//1 233//32 237//18
f  231//1 232//1 238//13
f  232//1 237//18 238//13
f  237//18 67//16 63//18
f  238//13 237//18 63//18
f  67//16 235//16 68//16
f  235//16 236//16 239//16
f  235//16 239//16 68//16
f  68//16 239//16 69//16
f  236//16 240//16 239//16
f  239//16 240//16 241//16
f  239//16 241//16 69//16
f  236//16 242//16 240//16
f  242//16 108//16 240//16
f  240//16 108//16 109//16
f  240//16 109//16 241//16
f  241//16 109//16 80//16
f  241//16 80//16 72//16
f  109//16 102//24 80//16
f  80//16 102//24 81//20
f  7//2 81//20 102//24
f  98//13 157//10 7//2
f  242//16 110//16 108//16
f  120//16 110//16 242//16
f  228//16 120//16 242//16
f  228//16 242//16 236//16
f  238//13 63//18 62//13
f  231//1 238//13 243//13
f  222//1 221//5 231//1
f  222//1 231//1 243//13
f  222//1 243//13 244//13
f  213//4 222//1 244//13
f  213//4 244//13 214//10
f  151//9 105//22 113//9
f  151//9 245//22 105//22
f  150//9 245//22 151//9
f  150//9 246//22 245//22
f  143//30 247//27 150//9
f  247//27 246//22 150//9
f  247//27 248//23 246//22
f  248//23 249//22 246//22
f  143//30 248//23 247//27
f  143//30 250//10 248//23
f  143//30 153//13 250//10
f  250//10 251//23 248//23
f  248//23 251//23 249//22
f  251//23 252//21 249//22
f  249//22 252//21 95//21
f  249//22 95//21 100//22
f  253//10 254//2 251//23
f  250//10 253//10 251//23
f  251//23 254//2 252//21
f  250//10 153//13 97//13
f  250//10 97//13 253//10
f  253//10 255//30 254//2
f  253//10 97//13 2//5
f  253//10 2//5 255//30
f  255//30 252//21 254//2
f  255//30 2//5 252//21
f  2//5 95//21 252//21
f  135//5 130//5 128//5
f  135//5 128//5 220//5
f  256//4 255//30 2//5
f  256//4 2//5 1//1
f  256//4 13//3 91//23
f  256//4 91//23 255//30
f  256//4 1//1 6//1
f  256//4 6//1 13//3
f  255//30 91//23 88//22
f  255//30 88//22 2//5
f  166//11 160//11 158//11
f  166//11 158//11 147//11
f  214//10 197//10 198//23
f  214//10 198//23 210//31
f  214//10 244//13 202//13
f  214//10 202//13 197//10
f  210//31 198//23 205//22
f  210//31 205//22 209//21
f  209//21 205//22 206//22
f  209//21 206//22 208//21
f  208//21 206//22 179//23
f  208//21 179//23 207//2
f  244//13 204//13 202//13
f  244//13 243//13 204//13
f  243//13 62//13 204//13
f  243//13 238//13 62//13
f  257//10 27//10 22//8
f  257//10 22//8 258//23
f  257//10 203//13 32//13
f  257//10 32//13 27//10
f  258//23 22//8 25//9
f  258//23 25//9 192//22
f  192//22 25//9 190//9
f  192//22 190//9 189//22
f  189//22 190//9 188//27
f  189//22 188//27 184//23
f  203//13 41//13 32//13
f  203//13 57//13 41//13
f  57//13 50//13 41//13
f  57//13 52//13 50//13
f  199//10 257//10 258//23
f  199//10 258//23 194//23
f  199//10 201//13 203//13
f  199//10 203//13 257//10
f  194//23 258//23 192//22
f  194//23 192//22 191//22
f  174//30 178//30 175//30
f  174//30 175//30 172//30
f  175//30 17//6 9//4
f  175//30 9//4 8//3
f  69//16 241//16 72//16
f  69//16 72//16 70//16
f  72//16 80//16 75//16
f  72//16 75//16 73//16
f  153//13 152//13 98//13
f  153//13 98//13 97//13
f  152//13 154//10 157//10
f  152//13 157//10 98//13
f  204//13 62//13 59//13
f  204//13 59//13 58//13
f  246//22 249//22 100//22
f  246//22 100//22 245//22
f  245//22 100//22 101//22
f  245//22 101//22 105//22
f  206//22 186//22 180//23
f  206//22 180//23 179//23

