# MagicaVoxel @ ephtracy

# material
mtllib Hallway1.mtl

# normals
vn -1 0 0
vn 1 0 0
vn 0 0 1
vn 0 0 -1
vn 0 -1 0
vn 0 1 0

# texcoords
vt 0.958984 0.5
vt 0.982422 0.5
vt 0.986328 0.5
vt 0.990234 0.5

# verts
v -3.5 3 0.5
v -3.5 4 0.5
v -3.5 4 -0.5
v -3.5 3 -0.5
v -3.5 4 1.5
v -3.5 5 1.5
v -3.5 5 0.5
v -3.5 6 1.5
v -3.5 6 0.5
v 1.5 5 0.5
v 1.5 6 0.5
v 1.5 6 -0.5
v 1.5 5 -0.5
v 1.5 5 1.5
v 1.5 6 1.5
v -3.5 6 -0.5
v -3.5 5 -0.5
v 2.5 1 1.5
v 2.5 2 1.5
v 2.5 2 0.5
v 2.5 1 0.5
v -1.5 6 1.5
v -1.5 7 1.5
v -1.5 7 0.5
v -1.5 6 0.5
v 2.5 4 0.5
v 2.5 5 0.5
v 2.5 5 -0.5
v 2.5 4 -0.5
v -1.5 6 -0.5
v -1.5 7 -0.5
v -1.5 7 -1.5
v -1.5 6 -1.5
v 2.5 3 0.5
v 2.5 3 -0.5
v 2.5 2 -0.5
v -3.5 5 -1.5
v -3.5 4 -1.5
v 1.5 6 -1.5
v 1.5 5 -1.5
v 2.5 3 -1.5
v 2.5 2 -1.5
v -3.5 3 1.5
v -3.5 0 1.5
v -3.5 1 1.5
v -3.5 1 0.5
v -3.5 0 0.5
v -3.5 1 -0.5
v -3.5 0 -0.5
v -3.5 1 -1.5
v -3.5 0 -1.5
v 2.5 5 -1.5
v 2.5 4 -1.5
v 2.5 4 1.5
v 2.5 5 1.5
v -3.5 3 -1.5
v -3.5 2 1.5
v -3.5 2 0.5
v -3.5 2 -0.5
v -3.5 2 -1.5
v 2.5 3 1.5
v 2.5 1 -0.5
v 2.5 1 -1.5
v -3.5 6 -1.5
v -2.5 3 0.5
v -2.5 3 -0.5
v -2.5 4 -0.5
v -2.5 4 0.5
v -2.5 4 1.5
v -2.5 5 0.5
v -2.5 5 1.5
v 3.5 0 0.5
v 3.5 0 -0.5
v 3.5 1 -0.5
v 3.5 1 0.5
v 3.5 1 1.5
v 3.5 2 0.5
v 3.5 2 1.5
v 1.5 7 -0.5
v 1.5 7 0.5
v 3.5 4 0.5
v 3.5 4 -0.5
v 3.5 5 -0.5
v 3.5 5 0.5
v -1.5 5 1.5
v -1.5 5 0.5
v 3.5 2 -0.5
v 3.5 3 -0.5
v 3.5 3 0.5
v 3.5 6 -0.5
v 3.5 6 0.5
v 1.5 7 1.5
v -2.5 4 -1.5
v -2.5 5 -1.5
v -2.5 5 -0.5
v 3.5 5 -1.5
v 3.5 6 -1.5
v 1.5 7 -1.5
v 3.5 2 -1.5
v 3.5 3 -1.5
v 3.5 0 -1.5
v 3.5 1 -1.5
v 3.5 5 1.5
v 3.5 6 1.5
v -2.5 3 1.5
v -1.5 5 -0.5
v -1.5 5 -1.5
v 3.5 0 1.5
v 3.5 4 -1.5
v 3.5 4 1.5
v -2.5 3 -1.5
v -2.5 1 1.5
v -2.5 1 0.5
v -2.5 2 0.5
v -2.5 2 1.5
v -2.5 1 -0.5
v -2.5 2 -0.5
v -2.5 1 -1.5
v -2.5 2 -1.5
v 3.5 3 1.5
v -0.5 6 1.5
v 0.5 6 1.5
v 0.5 7 1.5
v -0.5 7 1.5
v -2.5 0 1.5
v -1.5 0 1.5
v -1.5 1 1.5
v -2.5 6 1.5
v 2.5 6 1.5
v -0.5 0 1.5
v -0.5 1 1.5
v 0.5 0 1.5
v 0.5 1 1.5
v 1.5 0 1.5
v 1.5 1 1.5
v 2.5 0 1.5
v -2.5 0 -1.5
v -1.5 1 -1.5
v -1.5 0 -1.5
v -0.5 0 -1.5
v -0.5 1 -1.5
v 0.5 1 -1.5
v 0.5 0 -1.5
v -0.5 6 -1.5
v -0.5 7 -1.5
v 0.5 7 -1.5
v 0.5 6 -1.5
v 1.5 1 -1.5
v 1.5 0 -1.5
v 2.5 6 -1.5
v 2.5 0 -1.5
v -2.5 6 -1.5
v -2.5 0 -0.5
v -1.5 0 -0.5
v -0.5 6 0.5
v 0.5 6 0.5
v -2.5 0 0.5
v -1.5 0 0.5
v 2.5 0 0.5
v 2.5 0 -0.5
v -0.5 0 -0.5
v 0.5 0 -0.5
v -0.5 0 0.5
v 0.5 0 0.5
v 1.5 0 -0.5
v 1.5 0 0.5
v 0.5 6 -0.5
v -0.5 6 -0.5
v -1.5 1 -0.5
v 0.5 7 0.5
v -0.5 7 0.5
v -1.5 1 0.5
v -2.5 6 0.5
v 2.5 6 0.5
v 2.5 6 -0.5
v -2.5 6 -0.5
v -0.5 1 -0.5
v 0.5 1 -0.5
v -0.5 1 0.5
v 0.5 1 0.5
v 1.5 1 0.5
v 1.5 1 -0.5
v 0.5 7 -0.5
v -0.5 7 -0.5

# faces

usemtl palette

f 1/3/1 2/3/1 3/3/1 4/3/1

f 5/3/1 6/3/1 7/3/1 2/3/1

f 6/3/1 8/3/1 9/3/1 7/3/1

f 10/3/1 11/3/1 12/3/1 13/3/1

f 14/3/1 15/3/1 11/3/1 10/3/1

f 7/3/1 9/3/1 16/3/1 17/3/1

f 18/3/1 19/3/1 20/3/1 21/3/1

f 22/3/1 23/3/1 24/3/1 25/3/1

f 26/3/1 27/3/1 28/3/1 29/3/1

f 30/3/1 31/3/1 32/3/1 33/3/1

f 20/3/1 34/3/1 35/3/1 36/3/1

f 3/3/1 17/3/1 37/3/1 38/3/1

f 13/3/1 12/3/1 39/3/1 40/3/1

f 36/3/1 35/3/1 41/3/1 42/3/1

f 25/3/1 24/3/1 31/3/1 30/3/1

f 2/3/1 7/3/1 17/3/1 3/3/1

f 43/3/1 5/3/1 2/3/1 1/3/1

f 44/3/1 45/3/1 46/3/1 47/3/1

f 47/3/1 46/3/1 48/3/1 49/3/1

f 49/3/1 48/3/1 50/3/1 51/3/1

f 29/3/1 28/3/1 52/3/1 53/3/1

f 54/3/1 55/3/1 27/3/1 26/3/1

f 4/3/1 3/3/1 38/3/1 56/3/1

f 45/3/1 57/3/1 58/3/1 46/3/1

f 46/3/1 58/3/1 59/3/1 48/3/1

f 48/3/1 59/3/1 60/3/1 50/3/1

f 34/3/1 26/3/1 29/3/1 35/3/1

f 19/3/1 61/3/1 34/3/1 20/3/1

f 61/3/1 54/3/1 26/3/1 34/3/1

f 35/3/1 29/3/1 53/3/1 41/3/1

f 57/3/1 43/3/1 1/3/1 58/3/1

f 58/3/1 1/3/1 4/3/1 59/3/1

f 59/3/1 4/3/1 56/3/1 60/3/1

f 62/3/1 36/3/1 42/3/1 63/3/1

f 21/3/1 20/3/1 36/3/1 62/3/1

f 17/3/1 16/3/1 64/3/1 37/3/1

f 65/3/2 66/3/2 67/3/2 68/3/2

f 69/3/2 68/3/2 70/3/2 71/3/2

f 72/3/2 73/3/2 74/3/2 75/3/2

f 76/3/2 75/3/2 77/3/2 78/3/2

f 11/3/2 12/3/2 79/3/2 80/3/2

f 81/3/2 82/3/2 83/3/2 84/3/2

f 85/3/2 86/3/2 25/3/2 22/3/2

f 77/3/2 87/3/2 88/3/2 89/3/2

f 84/3/2 83/3/2 90/3/2 91/3/2

f 15/3/2 11/3/2 80/3/2 92/3/2

f 67/3/2 93/3/2 94/3/2 95/3/2

f 83/3/2 96/3/2 97/3/2 90/3/2

f 12/3/2 39/3/2 98/3/2 79/3/2

f 87/3/2 99/3/2 100/3/2 88/3/2

f 73/3/2 101/3/2 102/3/2 74/3/2

f 103/3/2 84/3/2 91/3/2 104/3/2

f 68/3/2 67/3/2 95/3/2 70/3/2

f 105/3/2 65/3/2 68/3/2 69/3/2

f 106/3/2 107/3/2 33/3/2 30/3/2

f 108/3/2 72/3/2 75/3/2 76/3/2

f 82/3/2 109/3/2 96/3/2 83/3/2

f 110/3/2 81/3/2 84/3/2 103/3/2

f 66/3/2 111/3/2 93/3/2 67/3/2

f 112/3/2 113/3/2 114/3/2 115/3/2

f 113/3/2 116/3/2 117/3/2 114/3/2

f 116/3/2 118/3/2 119/3/2 117/3/2

f 89/3/2 88/3/2 82/3/2 81/3/2

f 86/3/2 106/3/2 30/3/2 25/3/2

f 78/3/2 77/3/2 89/3/2 120/3/2

f 120/3/2 89/3/2 81/3/2 110/3/2

f 88/3/2 100/3/2 109/3/2 82/3/2

f 115/3/2 114/3/2 65/3/2 105/3/2

f 114/3/2 117/3/2 66/3/2 65/3/2

f 117/3/2 119/3/2 111/3/2 66/3/2

f 74/3/2 102/3/2 99/3/2 87/3/2

f 75/3/2 74/3/2 87/3/2 77/3/2

f 121/1/3 122/1/3 123/1/3 124/1/3

f 125/4/3 126/4/3 127/4/3 112/4/3

f 5/3/3 69/3/3 71/3/3 6/3/3

f 6/3/3 71/3/3 128/3/3 8/3/3

f 14/3/3 55/3/3 129/3/3 15/3/3

f 18/3/3 76/3/3 78/3/3 19/3/3

f 22/3/3 121/3/3 124/3/3 23/3/3

f 126/3/3 130/3/3 131/3/3 127/3/3

f 71/3/3 85/3/3 22/3/3 128/3/3

f 130/3/3 132/3/3 133/3/3 131/3/3

f 132/3/3 134/3/3 135/3/3 133/3/3

f 122/3/3 15/3/3 92/3/3 123/3/3

f 134/4/3 136/4/3 18/4/3 135/4/3

f 55/3/3 103/3/3 104/3/3 129/3/3

f 43/3/3 105/3/3 69/3/3 5/3/3

f 44/3/3 125/3/3 112/3/3 45/3/3

f 136/3/3 108/3/3 76/3/3 18/3/3

f 54/3/3 110/3/3 103/3/3 55/3/3

f 45/3/3 112/3/3 115/3/3 57/3/3

f 19/3/3 78/3/3 120/3/3 61/3/3

f 61/3/3 120/3/3 110/3/3 54/3/3

f 57/3/3 115/3/3 105/3/3 43/3/3

f 137/4/4 118/4/4 138/4/4 139/4/4

f 140/3/4 141/3/4 142/3/4 143/3/4

f 139/3/4 138/3/4 141/3/4 140/3/4

f 144/3/4 145/3/4 146/3/4 147/3/4

f 33/3/4 32/3/4 145/3/4 144/3/4

f 143/2/4 142/2/4 148/2/4 149/2/4

f 38/3/4 37/3/4 94/3/4 93/3/4

f 52/3/4 150/3/4 97/3/4 96/3/4

f 147/3/4 146/3/4 98/3/4 39/3/4

f 40/3/4 39/3/4 150/3/4 52/3/4

f 42/3/4 41/3/4 100/3/4 99/3/4

f 149/4/4 148/4/4 63/4/4 151/4/4

f 151/3/4 63/3/4 102/3/4 101/3/4

f 51/3/4 50/3/4 118/3/4 137/3/4

f 94/3/4 152/3/4 33/3/4 107/3/4

f 53/3/4 52/3/4 96/3/4 109/3/4

f 56/3/4 38/3/4 93/3/4 111/3/4

f 50/3/4 60/3/4 119/3/4 118/3/4

f 41/3/4 53/3/4 109/3/4 100/3/4

f 60/3/4 56/3/4 111/3/4 119/3/4

f 63/3/4 42/3/4 99/3/4 102/3/4

f 37/3/4 64/3/4 152/3/4 94/3/4

f 153/4/5 137/4/5 139/4/5 154/4/5

f 121/1/5 155/1/5 156/1/5 122/1/5

f 157/4/5 153/4/5 154/4/5 158/4/5

f 125/4/5 157/4/5 158/4/5 126/4/5

f 10/3/5 13/3/5 28/3/5 27/3/5

f 159/3/5 160/3/5 73/3/5 72/3/5

f 14/3/5 10/3/5 27/3/5 55/3/5

f 22/3/5 25/3/5 155/3/5 121/3/5

f 161/3/5 140/3/5 143/3/5 162/3/5

f 154/3/5 139/3/5 140/3/5 161/3/5

f 158/3/5 154/3/5 161/3/5 163/3/5

f 164/2/5 162/2/5 165/2/5 166/2/5

f 156/3/5 167/3/5 12/3/5 11/3/5

f 168/3/5 144/3/5 147/3/5 167/3/5

f 155/1/5 168/1/5 167/1/5 156/1/5

f 126/3/5 158/3/5 163/3/5 130/3/5

f 30/3/5 33/3/5 144/3/5 168/3/5

f 71/3/5 70/3/5 86/3/5 85/3/5

f 130/3/5 163/3/5 164/3/5 132/3/5

f 132/3/5 164/3/5 166/3/5 134/3/5

f 163/3/5 161/3/5 162/3/5 164/3/5

f 162/2/5 143/2/5 149/2/5 165/2/5

f 122/3/5 156/3/5 11/3/5 15/3/5

f 167/3/5 147/3/5 39/3/5 12/3/5

f 13/3/5 40/3/5 52/3/5 28/3/5

f 134/4/5 166/4/5 159/4/5 136/4/5

f 166/4/5 165/4/5 160/4/5 159/4/5

f 165/4/5 149/4/5 151/4/5 160/4/5

f 160/3/5 151/3/5 101/3/5 73/3/5

f 25/3/5 30/3/5 168/3/5 155/3/5

f 44/3/5 47/3/5 157/3/5 125/3/5

f 47/3/5 49/3/5 153/3/5 157/3/5

f 49/3/5 51/3/5 137/3/5 153/3/5

f 95/3/5 94/3/5 107/3/5 106/3/5

f 136/3/5 159/3/5 72/3/5 108/3/5

f 70/3/5 95/3/5 106/3/5 86/3/5

f 116/4/6 169/4/6 138/4/6 118/4/6

f 124/1/6 123/1/6 170/1/6 171/1/6

f 113/4/6 172/4/6 169/4/6 116/4/6

f 112/4/6 127/4/6 172/4/6 113/4/6

f 8/3/6 128/3/6 173/3/6 9/3/6

f 11/3/6 174/3/6 175/3/6 12/3/6

f 15/3/6 129/3/6 174/3/6 11/3/6

f 9/3/6 173/3/6 176/3/6 16/3/6

f 23/3/6 124/3/6 171/3/6 24/3/6

f 177/3/6 178/3/6 142/3/6 141/3/6

f 169/3/6 177/3/6 141/3/6 138/3/6

f 172/3/6 179/3/6 177/3/6 169/3/6

f 180/2/6 181/2/6 182/2/6 178/2/6

f 170/3/6 80/3/6 79/3/6 183/3/6

f 184/3/6 183/3/6 146/3/6 145/3/6

f 171/1/6 170/1/6 183/1/6 184/1/6

f 127/3/6 131/3/6 179/3/6 172/3/6

f 31/3/6 184/3/6 145/3/6 32/3/6

f 128/3/6 22/3/6 25/3/6 173/3/6

f 131/3/6 133/3/6 180/3/6 179/3/6

f 133/3/6 135/3/6 181/3/6 180/3/6

f 179/3/6 180/3/6 178/3/6 177/3/6

f 178/2/6 182/2/6 148/2/6 142/2/6

f 174/3/6 91/3/6 90/3/6 175/3/6

f 123/3/6 92/3/6 80/3/6 170/3/6

f 175/3/6 90/3/6 97/3/6 150/3/6

f 183/3/6 79/3/6 98/3/6 146/3/6

f 12/3/6 175/3/6 150/3/6 39/3/6

f 135/4/6 18/4/6 21/4/6 181/4/6

f 181/4/6 21/4/6 62/4/6 182/4/6

f 182/4/6 62/4/6 63/4/6 148/4/6

f 24/3/6 171/3/6 184/3/6 31/3/6

f 129/3/6 104/3/6 91/3/6 174/3/6

f 176/3/6 30/3/6 33/3/6 152/3/6

f 173/3/6 25/3/6 30/3/6 176/3/6

f 16/3/6 176/3/6 152/3/6 64/3/6

# numNormals 6
# numTexCoords 4
# numVerts 184
# numFaces 188
