# MagicaVoxel @ ephtracy

# material
mtllib T-Intersection.mtl

# normals
vn -1 0 0
vn 1 0 0
vn 0 0 1
vn 0 0 -1
vn 0 -1 0
vn 0 1 0

# texcoords
vt 0.958984 0.5
vt 0.982422 0.5
vt 0.986328 0.5
vt 0.990234 0.5

# verts
v -3.5 0 2.5
v -3.5 1 2.5
v -3.5 1 1.5
v -3.5 0 1.5
v -3.5 0 -1.5
v -3.5 1 -1.5
v -3.5 1 -2.5
v -3.5 0 -2.5
v -3.5 1 0.5
v -3.5 0 0.5
v -3.5 1 -0.5
v -3.5 0 -0.5
v -3.5 0 3.5
v -3.5 1 3.5
v -3.5 2 3.5
v -3.5 2 2.5
v -3.5 3 3.5
v -3.5 3 2.5
v -3.5 1 -3.5
v -3.5 0 -3.5
v 2.5 1 3.5
v 2.5 2 3.5
v 2.5 2 2.5
v 2.5 1 2.5
v -1.5 6 3.5
v -1.5 7 3.5
v -1.5 7 2.5
v -1.5 6 2.5
v 2.5 3 3.5
v 2.5 3 2.5
v -1.5 7 1.5
v -1.5 6 1.5
v -3.5 2 -2.5
v -3.5 2 -3.5
v -3.5 3 -2.5
v -3.5 3 -3.5
v 2.5 4 3.5
v 2.5 4 2.5
v -3.5 4 -2.5
v -3.5 4 -3.5
v -3.5 4 3.5
v -3.5 4 2.5
v -3.5 5 3.5
v -3.5 5 2.5
v 2.5 5 3.5
v 2.5 5 2.5
v -3.5 6 -0.5
v -3.5 7 -0.5
v -3.5 7 -1.5
v -3.5 6 -1.5
v -3.5 6 0.5
v -3.5 7 0.5
v -3.5 5 -2.5
v -3.5 5 -3.5
v 1.5 5 3.5
v 1.5 6 3.5
v 1.5 6 2.5
v 1.5 5 2.5
v -3.5 6 1.5
v -3.5 7 1.5
v -3.5 6 2.5
v -3.5 5 1.5
v -2.5 5 3.5
v -2.5 6 3.5
v -2.5 6 2.5
v -2.5 5 2.5
v -3.5 5 -1.5
v -3.5 6 -2.5
v 1.5 6 1.5
v 1.5 5 1.5
v -2.5 1 3.5
v -2.5 1 2.5
v -2.5 2 2.5
v -2.5 2 3.5
v -2.5 3 2.5
v -2.5 3 3.5
v 3.5 0 -1.5
v 3.5 0 -2.5
v 3.5 1 -2.5
v 3.5 1 -1.5
v 3.5 0 -3.5
v 3.5 1 -3.5
v 3.5 0 3.5
v 3.5 0 2.5
v 3.5 1 2.5
v 3.5 1 3.5
v 3.5 0 1.5
v 3.5 1 1.5
v 3.5 0 0.5
v 3.5 1 0.5
v 3.5 0 -0.5
v 3.5 1 -0.5
v 3.5 2 2.5
v 3.5 2 3.5
v 1.5 7 2.5
v 1.5 7 3.5
v 1.5 7 1.5
v 3.5 2 -3.5
v 3.5 2 -2.5
v 3.5 3 2.5
v 3.5 3 3.5
v 3.5 3 -3.5
v 3.5 3 -2.5
v 3.5 4 2.5
v 3.5 4 3.5
v 3.5 4 -3.5
v 3.5 4 -2.5
v -2.5 4 2.5
v -2.5 4 3.5
v 3.5 5 2.5
v 3.5 5 3.5
v 3.5 5 -3.5
v 3.5 5 -2.5
v 2.5 6 2.5
v 2.5 6 3.5
v -1.5 5 2.5
v -1.5 5 1.5
v -1.5 5 3.5
v 3.5 5 -1.5
v 3.5 6 -2.5
v 3.5 6 -1.5
v 3.5 5 1.5
v 3.5 6 1.5
v 3.5 6 2.5
v 3.5 6 0.5
v 3.5 7 0.5
v 3.5 7 1.5
v 3.5 6 -0.5
v 3.5 7 -1.5
v 3.5 7 -0.5
v -2.5 0 3.5
v -1.5 0 3.5
v -1.5 1 3.5
v 1.5 0 3.5
v 2.5 0 3.5
v 1.5 1 3.5
v -0.5 0 3.5
v 0.5 0 3.5
v 0.5 1 3.5
v -0.5 1 3.5
v 0.5 6 3.5
v 0.5 7 3.5
v -0.5 6 3.5
v -0.5 7 3.5
v 2.5 1 -2.5
v 2.5 2 -2.5
v 2.5 3 -2.5
v -2.5 1 -2.5
v -2.5 2 -2.5
v -1.5 1 -2.5
v -1.5 2 -2.5
v -0.5 1 -2.5
v -0.5 2 -2.5
v 0.5 1 -2.5
v 0.5 2 -2.5
v 1.5 1 -2.5
v 1.5 2 -2.5
v -2.5 3 -2.5
v -1.5 3 -2.5
v -0.5 3 -2.5
v 0.5 3 -2.5
v 1.5 3 -2.5
v 2.5 4 -2.5
v -2.5 4 -2.5
v -1.5 4 -2.5
v -0.5 4 -2.5
v 0.5 4 -2.5
v 1.5 4 -2.5
v -2.5 6 1.5
v -2.5 7 1.5
v 2.5 5 -2.5
v -2.5 5 -2.5
v -1.5 5 -2.5
v -0.5 5 -2.5
v 0.5 5 -2.5
v 1.5 5 -2.5
v 1.5 5 -1.5
v 2.5 5 -1.5
v 2.5 6 -1.5
v 1.5 6 -1.5
v 0.5 5 -1.5
v 0.5 6 -1.5
v -0.5 5 -1.5
v -0.5 6 -1.5
v -1.5 5 -1.5
v -1.5 6 -1.5
v -2.5 5 -1.5
v -2.5 6 -1.5
v 2.5 6 1.5
v 2.5 7 1.5
v -2.5 1 -3.5
v -2.5 0 -3.5
v -1.5 1 -3.5
v -1.5 0 -3.5
v -0.5 1 -3.5
v -0.5 0 -3.5
v 0.5 1 -3.5
v 0.5 0 -3.5
v 1.5 1 -3.5
v 1.5 0 -3.5
v 2.5 1 -3.5
v 2.5 0 -3.5
v 2.5 2 -3.5
v 0.5 7 -1.5
v 1.5 7 -1.5
v -0.5 7 -1.5
v 2.5 3 -3.5
v -2.5 2 -3.5
v -1.5 2 -3.5
v -0.5 2 -3.5
v 0.5 2 -3.5
v 1.5 2 -3.5
v -2.5 3 -3.5
v -1.5 3 -3.5
v -0.5 3 -3.5
v 0.5 3 -3.5
v 1.5 3 -3.5
v -1.5 7 -1.5
v -2.5 7 -1.5
v 2.5 4 -3.5
v -2.5 4 -3.5
v -1.5 4 -3.5
v -0.5 4 -3.5
v 0.5 4 -3.5
v 1.5 4 -3.5
v 2.5 5 -3.5
v -2.5 5 -3.5
v -1.5 5 -3.5
v -0.5 5 -3.5
v 0.5 5 -3.5
v 1.5 5 -3.5
v -2.5 5 1.5
v 1.5 6 -2.5
v 2.5 6 -2.5
v 0.5 6 -2.5
v -0.5 6 -2.5
v -1.5 6 -2.5
v -2.5 6 -2.5
v 2.5 5 1.5
v 2.5 7 -1.5
v -2.5 0 2.5
v -2.5 0 1.5
v -1.5 0 1.5
v -1.5 0 2.5
v 1.5 0 -1.5
v 1.5 0 -2.5
v 2.5 0 -2.5
v 2.5 0 -1.5
v 1.5 0 -0.5
v 2.5 0 -0.5
v 0.5 0 -1.5
v 0.5 0 -2.5
v -2.5 0 -2.5
v -2.5 0 -1.5
v 1.5 0 0.5
v 2.5 0 0.5
v -1.5 0 -1.5
v -1.5 0 -2.5
v -0.5 0 -2.5
v -0.5 0 -1.5
v 1.5 0 1.5
v 2.5 0 1.5
v 1.5 0 2.5
v 2.5 0 2.5
v -2.5 0 0.5
v -1.5 0 0.5
v -0.5 0 0.5
v -0.5 0 1.5
v 0.5 0 0.5
v 0.5 0 1.5
v -2.5 0 -0.5
v -1.5 0 -0.5
v -0.5 0 -0.5
v 0.5 0 -0.5
v -0.5 0 2.5
v 0.5 0 2.5
v 0.5 6 2.5
v -0.5 6 2.5
v 0.5 6 1.5
v -0.5 6 1.5
v 0.5 6 -0.5
v 1.5 6 -0.5
v 0.5 6 0.5
v 1.5 6 0.5
v -0.5 6 -0.5
v -1.5 6 -0.5
v -2.5 6 -0.5
v -0.5 6 0.5
v -1.5 6 0.5
v -2.5 6 0.5
v 2.5 6 0.5
v 2.5 6 -0.5
v -1.5 1 2.5
v -1.5 1 1.5
v -2.5 1 1.5
v 1.5 1 -1.5
v 2.5 1 -1.5
v 1.5 1 -0.5
v 2.5 1 -0.5
v 0.5 1 -1.5
v -2.5 1 -1.5
v 1.5 1 0.5
v 2.5 1 0.5
v -1.5 1 -1.5
v -0.5 1 -1.5
v 1.5 1 1.5
v 2.5 1 1.5
v 1.5 1 2.5
v -2.5 1 0.5
v -1.5 1 0.5
v -0.5 1 1.5
v -0.5 1 0.5
v 0.5 1 1.5
v 0.5 1 0.5
v -2.5 1 -0.5
v -1.5 1 -0.5
v -0.5 1 -0.5
v 0.5 1 -0.5
v 0.5 1 2.5
v -0.5 1 2.5
v 0.5 7 2.5
v -0.5 7 2.5
v 0.5 7 1.5
v -0.5 7 1.5
v 0.5 7 -0.5
v 1.5 7 -0.5
v 0.5 7 0.5
v 1.5 7 0.5
v -0.5 7 -0.5
v -1.5 7 -0.5
v -2.5 7 -0.5
v -0.5 7 0.5
v -1.5 7 0.5
v -2.5 7 0.5
v 2.5 7 0.5
v 2.5 7 -0.5

# faces

usemtl palette

f 1/4/1 2/4/1 3/4/1 4/4/1

f 5/4/1 6/4/1 7/4/1 8/4/1

f 4/3/1 3/3/1 9/3/1 10/3/1

f 10/3/1 9/3/1 11/3/1 12/3/1

f 12/3/1 11/3/1 6/3/1 5/3/1

f 13/3/1 14/3/1 2/3/1 1/3/1

f 14/2/1 15/2/1 16/2/1 2/2/1

f 15/3/1 17/3/1 18/3/1 16/3/1

f 8/3/1 7/3/1 19/3/1 20/3/1

f 21/3/1 22/3/1 23/3/1 24/3/1

f 25/3/1 26/3/1 27/3/1 28/3/1

f 22/3/1 29/3/1 30/3/1 23/3/1

f 28/3/1 27/3/1 31/3/1 32/3/1

f 7/3/1 33/3/1 34/3/1 19/3/1

f 33/3/1 35/3/1 36/3/1 34/3/1

f 29/2/1 37/2/1 38/2/1 30/2/1

f 35/3/1 39/3/1 40/3/1 36/3/1

f 17/3/1 41/3/1 42/3/1 18/3/1

f 41/3/1 43/3/1 44/3/1 42/3/1

f 37/2/1 45/2/1 46/2/1 38/2/1

f 47/3/1 48/3/1 49/3/1 50/3/1

f 51/3/1 52/3/1 48/3/1 47/3/1

f 39/3/1 53/3/1 54/3/1 40/3/1

f 55/3/1 56/3/1 57/3/1 58/3/1

f 59/3/1 60/3/1 52/3/1 51/3/1

f 44/3/1 61/3/1 59/3/1 62/3/1

f 63/3/1 64/3/1 65/3/1 66/3/1

f 67/3/1 50/3/1 68/3/1 53/3/1

f 58/3/1 57/3/1 69/3/1 70/3/1

f 71/2/2 72/2/2 73/2/2 74/2/2

f 74/3/2 73/3/2 75/3/2 76/3/2

f 77/4/2 78/4/2 79/4/2 80/4/2

f 78/3/2 81/3/2 82/3/2 79/3/2

f 83/3/2 84/3/2 85/3/2 86/3/2

f 84/4/2 87/4/2 88/4/2 85/4/2

f 87/3/2 89/3/2 90/3/2 88/3/2

f 89/3/2 91/3/2 92/3/2 90/3/2

f 91/3/2 77/3/2 80/3/2 92/3/2

f 86/3/2 85/3/2 93/3/2 94/3/2

f 56/3/2 57/3/2 95/3/2 96/3/2

f 57/3/2 69/3/2 97/3/2 95/3/2

f 79/3/2 82/3/2 98/3/2 99/3/2

f 94/3/2 93/3/2 100/3/2 101/3/2

f 99/2/2 98/2/2 102/2/2 103/2/2

f 101/2/2 100/2/2 104/2/2 105/2/2

f 103/2/2 102/2/2 106/2/2 107/2/2

f 76/3/2 75/3/2 108/3/2 109/3/2

f 109/3/2 108/3/2 66/3/2 63/3/2

f 105/2/2 104/2/2 110/2/2 111/2/2

f 107/3/2 106/3/2 112/3/2 113/3/2

f 45/3/2 46/3/2 114/3/2 115/3/2

f 116/3/2 117/3/2 32/3/2 28/3/2

f 118/3/2 116/3/2 28/3/2 25/3/2

f 119/3/2 113/3/2 120/3/2 121/3/2

f 110/3/2 122/3/2 123/3/2 124/3/2

f 123/3/2 125/3/2 126/3/2 127/3/2

f 128/3/2 121/3/2 129/3/2 130/3/2

f 125/3/2 128/3/2 130/3/2 126/3/2

f 131/4/3 132/4/3 133/4/3 71/4/3

f 134/4/3 135/4/3 21/4/3 136/4/3

f 137/3/3 138/3/3 139/3/3 140/3/3

f 138/3/3 134/3/3 136/3/3 139/3/3

f 132/2/3 137/2/3 140/2/3 133/2/3

f 13/3/3 131/3/3 71/3/3 14/3/3

f 14/2/3 71/2/3 74/2/3 15/2/3

f 15/3/3 74/3/3 76/3/3 17/3/3

f 135/3/3 83/3/3 86/3/3 21/3/3

f 21/3/3 86/3/3 94/3/3 22/3/3

f 141/3/3 56/3/3 96/3/3 142/3/3

f 143/3/3 141/3/3 142/3/3 144/3/3

f 25/3/3 143/3/3 144/3/3 26/3/3

f 145/3/3 79/3/3 99/3/3 146/3/3

f 22/3/3 94/3/3 101/3/3 29/3/3

f 146/2/3 99/2/3 103/2/3 147/2/3

f 7/3/3 148/3/3 149/3/3 33/3/3

f 148/3/3 150/3/3 151/3/3 149/3/3

f 150/3/3 152/3/3 153/3/3 151/3/3

f 152/3/3 154/3/3 155/3/3 153/3/3

f 154/3/3 156/3/3 157/3/3 155/3/3

f 156/3/3 145/3/3 146/3/3 157/3/3

f 33/3/3 149/3/3 158/3/3 35/3/3

f 149/3/3 151/3/3 159/3/3 158/3/3

f 151/3/3 153/3/3 160/3/3 159/3/3

f 153/3/3 155/3/3 161/3/3 160/3/3

f 155/3/3 157/3/3 162/3/3 161/3/3

f 157/3/3 146/3/3 147/3/3 162/3/3

f 29/2/3 101/2/3 105/2/3 37/2/3

f 147/2/3 103/2/3 107/2/3 163/2/3

f 35/3/3 158/3/3 164/3/3 39/3/3

f 158/3/3 159/3/3 165/3/3 164/3/3

f 159/3/3 160/3/3 166/3/3 165/3/3

f 160/3/3 161/3/3 167/3/3 166/3/3

f 161/3/3 162/3/3 168/3/3 167/3/3

f 162/3/3 147/3/3 163/3/3 168/3/3

f 17/3/3 76/3/3 109/3/3 41/3/3

f 41/3/3 109/3/3 63/3/3 43/3/3

f 37/2/3 105/2/3 111/2/3 45/2/3

f 169/3/3 32/3/3 31/3/3 170/3/3

f 163/3/3 107/3/3 113/3/3 171/3/3

f 39/3/3 164/3/3 172/3/3 53/3/3

f 164/2/3 165/2/3 173/2/3 172/2/3

f 165/3/3 166/3/3 174/3/3 173/3/3

f 166/3/3 167/3/3 175/3/3 174/3/3

f 167/3/3 168/3/3 176/3/3 175/3/3

f 168/3/3 163/3/3 171/3/3 176/3/3

f 55/3/3 45/3/3 115/3/3 56/3/3

f 59/3/3 169/3/3 170/3/3 60/3/3

f 44/3/3 66/3/3 65/3/3 61/3/3

f 63/3/3 118/3/3 25/3/3 64/3/3

f 177/3/3 178/3/3 179/3/3 180/3/3

f 181/3/3 177/3/3 180/3/3 182/3/3

f 183/3/3 181/3/3 182/3/3 184/3/3

f 185/3/3 183/3/3 184/3/3 186/3/3

f 187/3/3 185/3/3 186/3/3 188/3/3

f 67/3/3 187/3/3 188/3/3 50/3/3

f 69/3/3 189/3/3 190/3/3 97/3/3

f 178/3/3 119/3/3 121/3/3 179/3/3

f 46/3/3 110/3/3 124/3/3 114/3/3

f 189/3/3 123/3/3 127/3/3 190/3/3

f 2/2/4 16/2/4 73/2/4 72/2/4

f 16/3/4 18/3/4 75/3/4 73/3/4

f 20/3/4 19/3/4 191/3/4 192/3/4

f 192/3/4 191/3/4 193/3/4 194/3/4

f 194/3/4 193/3/4 195/3/4 196/3/4

f 196/3/4 195/3/4 197/3/4 198/3/4

f 198/3/4 197/3/4 199/3/4 200/3/4

f 200/3/4 199/3/4 201/3/4 202/3/4

f 202/3/4 201/3/4 82/3/4 81/3/4

f 24/3/4 23/3/4 93/3/4 85/3/4

f 201/3/4 203/3/4 98/3/4 82/3/4

f 23/3/4 30/3/4 100/3/4 93/3/4

f 182/3/4 204/3/4 205/3/4 180/3/4

f 184/3/4 206/3/4 204/3/4 182/3/4

f 203/2/4 207/2/4 102/2/4 98/2/4

f 19/3/4 34/3/4 208/3/4 191/3/4

f 191/3/4 208/3/4 209/3/4 193/3/4

f 193/3/4 209/3/4 210/3/4 195/3/4

f 195/3/4 210/3/4 211/3/4 197/3/4

f 197/3/4 211/3/4 212/3/4 199/3/4

f 199/3/4 212/3/4 203/3/4 201/3/4

f 34/3/4 36/3/4 213/3/4 208/3/4

f 208/3/4 213/3/4 214/3/4 209/3/4

f 209/3/4 214/3/4 215/3/4 210/3/4

f 210/3/4 215/3/4 216/3/4 211/3/4

f 211/3/4 216/3/4 217/3/4 212/3/4

f 212/3/4 217/3/4 207/3/4 203/3/4

f 30/2/4 38/2/4 104/2/4 100/2/4

f 186/3/4 218/3/4 206/3/4 184/3/4

f 188/3/4 219/3/4 218/3/4 186/3/4

f 207/2/4 220/2/4 106/2/4 102/2/4

f 36/3/4 40/3/4 221/3/4 213/3/4

f 213/3/4 221/3/4 222/3/4 214/3/4

f 214/3/4 222/3/4 223/3/4 215/3/4

f 215/3/4 223/3/4 224/3/4 216/3/4

f 216/3/4 224/3/4 225/3/4 217/3/4

f 217/3/4 225/3/4 220/3/4 207/3/4

f 18/3/4 42/3/4 108/3/4 75/3/4

f 42/3/4 44/3/4 66/3/4 108/3/4

f 38/2/4 46/2/4 110/2/4 104/2/4

f 50/3/4 49/3/4 219/3/4 188/3/4

f 220/3/4 226/3/4 112/3/4 106/3/4

f 40/3/4 54/3/4 227/3/4 221/3/4

f 221/2/4 227/2/4 228/2/4 222/2/4

f 222/3/4 228/3/4 229/3/4 223/3/4

f 223/3/4 229/3/4 230/3/4 224/3/4

f 224/3/4 230/3/4 231/3/4 225/3/4

f 225/3/4 231/3/4 226/3/4 220/3/4

f 62/3/4 59/3/4 169/3/4 232/3/4

f 232/3/4 169/3/4 32/3/4 117/3/4

f 176/3/4 233/3/4 234/3/4 171/3/4

f 175/3/4 235/3/4 233/3/4 176/3/4

f 174/3/4 236/3/4 235/3/4 175/3/4

f 173/3/4 237/3/4 236/3/4 174/3/4

f 172/3/4 238/3/4 237/3/4 173/3/4

f 53/3/4 68/3/4 238/3/4 172/3/4

f 70/3/4 69/3/4 189/3/4 239/3/4

f 180/3/4 205/3/4 240/3/4 179/3/4

f 171/3/4 234/3/4 120/3/4 113/3/4

f 239/3/4 189/3/4 123/3/4 122/3/4

f 179/3/4 240/3/4 129/3/4 121/3/4

f 241/4/5 242/4/5 243/4/5 244/4/5

f 245/4/5 246/4/5 247/4/5 248/4/5

f 249/3/5 245/3/5 248/3/5 250/3/5

f 251/4/5 252/4/5 246/4/5 245/4/5

f 1/4/5 4/4/5 242/4/5 241/4/5

f 5/4/5 8/4/5 253/4/5 254/4/5

f 255/3/5 249/3/5 250/3/5 256/3/5

f 257/4/5 258/4/5 259/4/5 260/4/5

f 254/4/5 253/4/5 258/4/5 257/4/5

f 261/3/5 255/3/5 256/3/5 262/3/5

f 263/4/5 261/4/5 262/4/5 264/4/5

f 260/4/5 259/4/5 252/4/5 251/4/5

f 131/4/5 241/4/5 244/4/5 132/4/5

f 134/4/5 263/4/5 264/4/5 135/4/5

f 4/3/5 10/3/5 265/3/5 242/3/5

f 242/3/5 265/3/5 266/3/5 243/3/5

f 243/3/5 266/3/5 267/3/5 268/3/5

f 268/3/5 267/3/5 269/3/5 270/3/5

f 270/3/5 269/3/5 255/3/5 261/3/5

f 10/3/5 12/3/5 271/3/5 265/3/5

f 265/3/5 271/3/5 272/3/5 266/3/5

f 266/3/5 272/3/5 273/3/5 267/3/5

f 267/3/5 273/3/5 274/3/5 269/3/5

f 269/3/5 274/3/5 249/3/5 255/3/5

f 12/3/5 5/3/5 254/3/5 271/3/5

f 271/3/5 254/3/5 257/3/5 272/3/5

f 272/2/5 257/2/5 260/2/5 273/2/5

f 273/2/5 260/2/5 251/2/5 274/2/5

f 274/3/5 251/3/5 245/3/5 249/3/5

f 137/3/5 275/3/5 276/3/5 138/3/5

f 138/3/5 276/3/5 263/3/5 134/3/5

f 275/3/5 268/3/5 270/3/5 276/3/5

f 276/3/5 270/3/5 261/3/5 263/3/5

f 132/2/5 244/2/5 275/2/5 137/2/5

f 244/3/5 243/3/5 268/3/5 275/3/5

f 13/3/5 1/3/5 241/3/5 131/3/5

f 248/4/5 247/4/5 78/4/5 77/4/5

f 8/3/5 20/3/5 192/3/5 253/3/5

f 253/3/5 192/3/5 194/3/5 258/3/5

f 258/3/5 194/3/5 196/3/5 259/3/5

f 259/3/5 196/3/5 198/3/5 252/3/5

f 252/3/5 198/3/5 200/3/5 246/3/5

f 246/3/5 200/3/5 202/3/5 247/3/5

f 247/3/5 202/3/5 81/3/5 78/3/5

f 135/3/5 264/3/5 84/3/5 83/3/5

f 264/4/5 262/4/5 87/4/5 84/4/5

f 262/3/5 256/3/5 89/3/5 87/3/5

f 256/3/5 250/3/5 91/3/5 89/3/5

f 250/3/5 248/3/5 77/3/5 91/3/5

f 141/3/5 277/3/5 57/3/5 56/3/5

f 143/3/5 278/3/5 277/3/5 141/3/5

f 25/3/5 28/3/5 278/3/5 143/3/5

f 277/3/5 279/3/5 69/3/5 57/3/5

f 278/1/5 280/1/5 279/1/5 277/1/5

f 28/3/5 32/3/5 280/3/5 278/3/5

f 281/3/5 182/3/5 180/3/5 282/3/5

f 283/1/5 281/1/5 282/1/5 284/1/5

f 279/3/5 283/3/5 284/3/5 69/3/5

f 285/3/5 184/3/5 182/3/5 281/3/5

f 286/3/5 186/3/5 184/3/5 285/3/5

f 287/3/5 188/3/5 186/3/5 286/3/5

f 288/3/5 285/3/5 281/3/5 283/3/5

f 280/1/5 288/1/5 283/1/5 279/1/5

f 289/1/5 286/1/5 285/1/5 288/1/5

f 32/2/5 289/2/5 288/2/5 280/2/5

f 290/1/5 287/1/5 286/1/5 289/1/5

f 169/3/5 290/3/5 289/3/5 32/3/5

f 47/3/5 50/3/5 188/3/5 287/3/5

f 51/3/5 47/3/5 287/3/5 290/3/5

f 55/3/5 58/3/5 46/3/5 45/3/5

f 59/3/5 51/3/5 290/3/5 169/3/5

f 44/3/5 62/3/5 232/3/5 66/3/5

f 66/3/5 232/3/5 117/3/5 116/3/5

f 63/3/5 66/3/5 116/3/5 118/3/5

f 177/3/5 176/3/5 171/3/5 178/3/5

f 181/3/5 175/3/5 176/3/5 177/3/5

f 183/3/5 174/3/5 175/3/5 181/3/5

f 185/3/5 173/3/5 174/3/5 183/3/5

f 187/3/5 172/3/5 173/3/5 185/3/5

f 67/3/5 53/3/5 172/3/5 187/3/5

f 58/3/5 70/3/5 239/3/5 46/3/5

f 69/3/5 284/3/5 291/3/5 189/3/5

f 284/1/5 282/1/5 292/1/5 291/1/5

f 282/3/5 180/3/5 179/3/5 292/3/5

f 178/3/5 171/3/5 113/3/5 119/3/5

f 46/3/5 239/3/5 122/3/5 110/3/5

f 189/3/5 291/3/5 125/3/5 123/3/5

f 292/3/5 179/3/5 121/3/5 128/3/5

f 291/3/5 292/3/5 128/3/5 125/3/5

f 72/4/6 293/4/6 294/4/6 295/4/6

f 296/4/6 297/4/6 145/4/6 156/4/6

f 298/3/6 299/3/6 297/3/6 296/3/6

f 300/4/6 296/4/6 156/4/6 154/4/6

f 2/4/6 72/4/6 295/4/6 3/4/6

f 6/4/6 301/4/6 148/4/6 7/4/6

f 302/3/6 303/3/6 299/3/6 298/3/6

f 304/4/6 305/4/6 152/4/6 150/4/6

f 301/4/6 304/4/6 150/4/6 148/4/6

f 306/3/6 307/3/6 303/3/6 302/3/6

f 308/4/6 24/4/6 307/4/6 306/4/6

f 305/4/6 300/4/6 154/4/6 152/4/6

f 71/4/6 133/4/6 293/4/6 72/4/6

f 136/4/6 21/4/6 24/4/6 308/4/6

f 3/3/6 295/3/6 309/3/6 9/3/6

f 295/3/6 294/3/6 310/3/6 309/3/6

f 294/3/6 311/3/6 312/3/6 310/3/6

f 311/3/6 313/3/6 314/3/6 312/3/6

f 313/3/6 306/3/6 302/3/6 314/3/6

f 9/3/6 309/3/6 315/3/6 11/3/6

f 309/3/6 310/3/6 316/3/6 315/3/6

f 310/3/6 312/3/6 317/3/6 316/3/6

f 312/3/6 314/3/6 318/3/6 317/3/6

f 314/3/6 302/3/6 298/3/6 318/3/6

f 11/3/6 315/3/6 301/3/6 6/3/6

f 315/3/6 316/3/6 304/3/6 301/3/6

f 316/2/6 317/2/6 305/2/6 304/2/6

f 317/2/6 318/2/6 300/2/6 305/2/6

f 318/3/6 298/3/6 296/3/6 300/3/6

f 140/3/6 139/3/6 319/3/6 320/3/6

f 139/3/6 136/3/6 308/3/6 319/3/6

f 320/3/6 319/3/6 313/3/6 311/3/6

f 319/3/6 308/3/6 306/3/6 313/3/6

f 133/2/6 140/2/6 320/2/6 293/2/6

f 293/3/6 320/3/6 311/3/6 294/3/6

f 297/4/6 80/4/6 79/4/6 145/4/6

f 24/4/6 85/4/6 88/4/6 307/4/6

f 307/3/6 88/3/6 90/3/6 303/3/6

f 303/3/6 90/3/6 92/3/6 299/3/6

f 299/3/6 92/3/6 80/3/6 297/3/6

f 142/3/6 96/3/6 95/3/6 321/3/6

f 144/3/6 142/3/6 321/3/6 322/3/6

f 26/3/6 144/3/6 322/3/6 27/3/6

f 321/3/6 95/3/6 97/3/6 323/3/6

f 322/1/6 321/1/6 323/1/6 324/1/6

f 27/3/6 322/3/6 324/3/6 31/3/6

f 325/3/6 326/3/6 205/3/6 204/3/6

f 327/1/6 328/1/6 326/1/6 325/1/6

f 323/3/6 97/3/6 328/3/6 327/3/6

f 329/3/6 325/3/6 204/3/6 206/3/6

f 330/3/6 329/3/6 206/3/6 218/3/6

f 331/3/6 330/3/6 218/3/6 219/3/6

f 332/3/6 327/3/6 325/3/6 329/3/6

f 324/1/6 323/1/6 327/1/6 332/1/6

f 333/1/6 332/1/6 329/1/6 330/1/6

f 43/3/6 63/3/6 66/3/6 44/3/6

f 45/2/6 111/2/6 110/2/6 46/2/6

f 31/2/6 324/2/6 332/2/6 333/2/6

f 334/1/6 333/1/6 330/1/6 331/1/6

f 170/3/6 31/3/6 333/3/6 334/3/6

f 48/3/6 331/3/6 219/3/6 49/3/6

f 52/3/6 334/3/6 331/3/6 48/3/6

f 171/3/6 113/3/6 112/3/6 226/3/6

f 53/3/6 172/3/6 227/3/6 54/3/6

f 172/2/6 173/2/6 228/2/6 227/2/6

f 173/3/6 174/3/6 229/3/6 228/3/6

f 174/3/6 175/3/6 230/3/6 229/3/6

f 175/3/6 176/3/6 231/3/6 230/3/6

f 176/3/6 171/3/6 226/3/6 231/3/6

f 56/3/6 115/3/6 114/3/6 57/3/6

f 60/3/6 170/3/6 334/3/6 52/3/6

f 61/3/6 65/3/6 169/3/6 59/3/6

f 65/3/6 28/3/6 32/3/6 169/3/6

f 64/3/6 25/3/6 28/3/6 65/3/6

f 180/3/6 179/3/6 234/3/6 233/3/6

f 182/3/6 180/3/6 233/3/6 235/3/6

f 184/3/6 182/3/6 235/3/6 236/3/6

f 186/3/6 184/3/6 236/3/6 237/3/6

f 188/3/6 186/3/6 237/3/6 238/3/6

f 50/3/6 188/3/6 238/3/6 68/3/6

f 57/3/6 114/3/6 189/3/6 69/3/6

f 97/3/6 190/3/6 335/3/6 328/3/6

f 328/1/6 335/1/6 336/1/6 326/1/6

f 326/3/6 336/3/6 240/3/6 205/3/6

f 179/3/6 121/3/6 120/3/6 234/3/6

f 114/3/6 124/3/6 123/3/6 189/3/6

f 190/3/6 127/3/6 126/3/6 335/3/6

f 336/3/6 130/3/6 129/3/6 240/3/6

f 335/3/6 126/3/6 130/3/6 336/3/6

# numNormals 6
# numTexCoords 4
# numVerts 336
# numFaces 358
